<?xml version="1.0" encoding="utf-8"?>
<!-- Generator: Adobe Illustrator 27.5.0, SVG Export Plug-In . SVG Version: 6.00 Build 0)  -->
<svg version="1.1" id="Layer_1" xmlns="http://www.w3.org/2000/svg" xmlns:xlink="http://www.w3.org/1999/xlink" x="0px" y="0px"
	 viewBox="0 0 5000 2916" style="enable-background:new 0 0 5000 2916;" xml:space="preserve">
<g>
	<rect style="fill-rule:evenodd;clip-rule:evenodd;" width="4999.999" height="2916"/>
	<g>
		<defs>
			<path id="SVGID_1_" d="M4412.223,1831.711l-0.873-0.342l3.236,1.514l0.36,0.148L4412.223,1831.711z M4353.07,1806.15l-1.013-0.38
				l3.664,1.659l0.437,0.172L4353.07,1806.15z M4381.398,1816.737l-6.095-2.265l9.095,4.277l5.759,2.253L4381.398,1816.737z
				 M4294.662,1781.734l-1.287-0.462l3.558,1.567l0.865,0.329L4294.662,1781.734z M4322.667,1791.787
				c-2.112-0.753-4.245-1.526-6.361-2.284l9.2,4.189l6.032,2.285L4322.667,1791.787z M4350.557,1801.701
				c-3.204-1.134-6.426-2.284-9.637-3.425c4.282,2.021,8.583,4.058,12.855,6.072c3.181,1.195,6.369,2.394,9.542,3.583
				L4350.557,1801.701z M4236.253,1758.168l-1.475-0.509l3.909,1.66l0.958,0.35L4236.253,1758.168z M4264.188,1767.772l-6.442-2.206
				l9.22,4.079l6.152,2.23L4264.188,1767.772z M4291.93,1777.22c-3.213-1.091-6.409-2.167-9.626-3.261l13.025,5.96
				c3.15,1.135,6.278,2.253,9.423,3.383L4291.93,1777.22z M4319.518,1786.521c-3.95-1.323-7.889-2.637-11.853-3.971l15.712,7.44
				c3.958,1.414,7.889,2.804,11.836,4.209C4329.98,1791.638,4324.764,1789.09,4319.518,1786.521z M4178.396,1735.684l-1.735-0.57
				l3.967,1.63l1.344,0.474L4178.396,1735.684z M4206.117,1744.787l-6.538-2.135l9.276,3.96l6.395,2.232L4206.117,1744.787z
				 M4233.736,1753.772c-3.268-1.057-6.558-2.131-9.834-3.196l12.916,5.731c3.262,1.127,6.542,2.27,9.795,3.389L4233.736,1753.772z
				 M4261.202,1762.611c-4.023-1.287-8.076-2.598-12.109-3.897l15.683,7.205c4.007,1.372,8.033,2.759,12.028,4.12
				C4271.616,1767.573,4266.403,1765.088,4261.202,1762.611z M4288.46,1771.28c-4.567-1.445-9.154-2.908-13.738-4.367
				c5.953,2.83,11.885,5.646,17.818,8.462c4.592,1.557,9.193,3.122,13.769,4.663L4288.46,1771.28z M4120.807,1714.186l-1.934-0.608
				l4.093,1.617l1.491,0.499L4120.807,1714.186z M4148.352,1722.788l-6.761-2.108l9.332,3.853l6.505,2.16L4148.352,1722.788z
				 M4175.758,1731.263l-9.884-3.048l13.034,5.589l9.722,3.199L4175.758,1731.263z M4203.004,1739.598
				c-4.017-1.222-8.021-2.438-12.047-3.669l15.709,6.991c4.021,1.314,8.022,2.612,12.035,3.918
				C4213.467,1744.424,4208.252,1742.023,4203.004,1739.598z M4230.176,1747.82c-4.544-1.367-9.074-2.722-13.634-4.101l17.758,8.191
				c4.565,1.476,9.101,2.928,13.655,4.394L4230.176,1747.82z M4257.184,1755.891c-4.973-1.474-9.941-2.948-14.931-4.44
				c6.533,3.116,13.033,6.208,19.544,9.309c4.988,1.595,9.946,3.164,14.916,4.745L4257.184,1755.891z M4063.547,1693.701
				l-2.192-0.651l4.403,1.675l1.763,0.561L4063.547,1693.701z M4090.94,1701.81l-6.818-2.005l9.559,3.795l6.591,2.081
				L4090.94,1701.81z M4118.18,1709.794c-3.303-0.962-6.599-1.919-9.912-2.888l13.045,5.4l9.878,3.095L4118.18,1709.794z
				 M4145.332,1717.667c-4.046-1.165-8.103-2.338-12.163-3.515l15.708,6.761c4.039,1.255,8.079,2.512,12.104,3.757
				C4155.779,1722.348,4150.547,1720.001,4145.332,1717.667z M4172.315,1725.401c-4.591-1.307-9.206-2.632-13.814-3.953
				c5.952,2.66,11.879,5.302,17.813,7.95c4.611,1.42,9.225,2.841,13.819,4.247L4172.315,1725.401z M4199.166,1732.999
				c-4.988-1.4-10.007-2.829-15.017-4.248c6.477,2.997,12.969,6.005,19.426,8.988c5.043,1.535,10.092,3.076,15.112,4.593
				L4199.166,1732.999z M4225.882,1740.455c-5.314-1.473-10.66-2.973-15.998-4.466c6.979,3.338,13.93,6.657,20.886,9.977
				c5.353,1.611,10.714,3.229,16.041,4.818C4239.854,1747.354,4232.86,1743.899,4225.882,1740.455z M4006.805,1674.318l-2.295-0.646
				l4.396,1.6l1.907,0.578L4006.805,1674.318z M4033.969,1681.903c-2.35-0.651-4.72-1.319-7.075-1.976l9.532,3.639l6.843,2.052
				L4033.969,1681.903z M4061.042,1689.383c-3.367-0.925-6.752-1.865-10.125-2.796l13.096,5.22l9.986,2.968L4061.042,1689.383z
				 M4087.94,1696.731c-4.071-1.105-8.154-2.222-12.236-3.337l15.729,6.53c4.078,1.201,8.154,2.402,12.219,3.595
				C4098.416,1701.256,4093.191,1699.003,4087.94,1696.731z M4114.756,1703.969c-4.591-1.233-9.185-2.468-13.79-3.712l17.723,7.656
				c4.619,1.346,9.23,2.686,13.835,4.022L4114.756,1703.969z M4141.426,1711.074c-4.996-1.323-9.987-2.644-14.997-3.98
				c6.496,2.912,12.957,5.8,19.433,8.698c5.019,1.446,10.024,2.881,15.028,4.314L4141.426,1711.074z M4167.931,1718.036
				c-5.274-1.376-10.539-2.744-15.834-4.137c6.932,3.216,13.861,6.431,20.771,9.631c5.341,1.521,10.659,3.022,15.982,4.527
				C4181.88,1724.718,4174.923,1721.39,4167.931,1718.036z M4194.344,1724.87c-5.526-1.419-11.048-2.833-16.599-4.27l21.998,10.536
				c5.586,1.57,11.144,3.113,16.711,4.665L4194.344,1724.87z M3950.221,1655.91l-2.53-0.668l4.71,1.638l2.077,0.592
				L3950.221,1655.91z M3977.276,1662.998l-7.099-1.851l9.765,3.569l6.834,1.928L3977.276,1662.998z M4004.123,1669.959
				c-3.37-0.871-6.726-1.732-10.101-2.606l13.213,5.061c3.34,0.936,6.657,1.857,9.988,2.789L4004.123,1669.959z M4030.92,1676.826
				c-4.064-1.032-8.114-2.058-12.19-3.102l15.71,6.286c4.064,1.13,8.106,2.242,12.157,3.361L4030.92,1676.826z M4057.559,1683.568
				c-4.595-1.154-9.188-2.308-13.8-3.475c5.941,2.479,11.855,4.938,17.779,7.404c4.611,1.267,9.202,2.519,13.797,3.774
				L4057.559,1683.568z M4084.063,1690.185c-4.982-1.234-9.973-2.475-14.976-3.724l19.357,8.386
				c5.035,1.367,10.054,2.723,15.069,4.076L4084.063,1690.185z M4110.45,1696.677c-5.302-1.292-10.618-2.598-15.942-3.911
				c6.94,3.119,13.855,6.222,20.772,9.324c5.341,1.433,10.67,2.855,15.989,4.27
				C4124.348,1703.145,4117.393,1699.909,4110.45,1696.677z M4136.668,1703.028c-5.53-1.327-11.083-2.671-16.641-4.021
				l21.945,10.194c5.593,1.481,11.176,2.953,16.745,4.412L4136.668,1703.028z M4162.779,1709.246
				c-5.729-1.352-11.485-2.725-17.243-4.1l22.958,11.021c5.807,1.515,11.604,3.024,17.381,4.514L4162.779,1709.246z
				 M3894.197,1638.631l-2.649-0.648l4.779,1.581l2.317,0.623L3894.197,1638.631z M3921.009,1645.185l-7.176-1.744l9.722,3.393
				c2.346,0.623,4.705,1.256,7.048,1.877L3921.009,1645.185z M3947.777,1651.658c-3.403-0.817-6.821-1.645-10.233-2.468
				l13.157,4.828c3.392,0.894,6.798,1.798,10.182,2.685L3947.777,1651.658z M3974.338,1658.002
				c-4.112-0.976-8.248-1.968-12.373-2.953l15.733,6.042c4.128,1.076,8.271,2.165,12.386,3.232L3974.338,1658.002z
				 M4000.822,1664.247c-4.62-1.081-9.271-2.186-13.906-3.278l17.671,7.093c4.658,1.201,9.33,2.414,13.973,3.602L4000.822,1664.247z
				 M4027.146,1670.363c-5.012-1.157-10.053-2.333-15.084-3.504c6.466,2.703,12.899,5.385,19.343,8.076
				c5.045,1.285,10.102,2.581,15.129,3.85L4027.146,1670.363z M4053.312,1676.349c-5.294-1.203-10.613-2.423-15.928-3.641
				l20.667,8.971c5.361,1.348,10.728,2.702,16.069,4.032L4053.312,1676.349z M4079.384,1682.215
				c-5.537-1.236-11.09-2.487-16.649-3.741l21.836,9.825c5.603,1.39,11.209,2.781,16.788,4.151L4079.384,1682.215z
				 M4105.292,1687.94c-5.716-1.252-11.444-2.513-17.185-3.787c7.64,3.558,15.256,7.1,22.87,10.643
				c5.788,1.414,11.57,2.823,17.331,4.214L4105.292,1687.94z M4131.065,1693.525c-5.862-1.259-11.73-2.522-17.621-3.804
				l23.767,11.428c5.954,1.43,11.896,2.852,17.822,4.258L4131.065,1693.525z M3838.562,1622.431l-2.941-0.671l4.963,1.556
				l2.501,0.625L3838.562,1622.431z M3865.182,1628.454l-7.359-1.661l9.853,3.275l7.127,1.765L3865.182,1628.454z
				 M3891.655,1634.376l-10.256-2.288l13.254,4.642l10.144,2.486L3891.655,1634.376z M3918.094,1640.215
				c-4.107-0.901-8.214-1.804-12.33-2.713l15.713,5.785c4.105,0.998,8.196,1.987,12.29,2.976L3918.094,1640.215z M3944.351,1645.935
				c-4.618-1-9.23-1.996-13.862-3.005c5.915,2.281,11.803,4.545,17.701,6.816c4.634,1.113,9.248,2.213,13.869,3.316
				L3944.351,1645.935z M3970.491,1651.545c-4.983-1.062-9.957-2.117-14.957-3.19l19.253,7.745
				c5.032,1.194,10.038,2.368,15.053,3.55L3970.491,1651.545z M3996.523,1657.042c-5.281-1.104-10.554-2.205-15.857-3.326
				l20.616,8.632c5.328,1.246,10.625,2.47,15.933,3.702C4010.335,1663.057,4003.425,1660.048,3996.523,1657.042z M4022.4,1662.411
				c-5.51-1.133-11.02-2.263-16.554-3.415l21.779,9.472c5.573,1.284,11.115,2.546,16.665,3.813L4022.4,1662.411z M4048.162,1667.656
				c-5.702-1.148-11.404-2.299-17.132-3.469c7.598,3.427,15.203,6.859,22.774,10.269c5.778,1.311,11.528,2.598,17.28,3.89
				L4048.162,1667.656z M4073.777,1672.764c-5.852-1.154-11.711-2.315-17.593-3.491l23.714,11.053
				c5.921,1.32,11.817,2.62,17.712,3.917L4073.777,1672.764z M4099.255,1677.734c-5.973-1.15-11.956-2.311-17.959-3.487
				l24.523,11.807c6.056,1.324,12.089,2.631,18.116,3.931L4099.255,1677.734z M3783.304,1607.316l-3.077-0.642l5.187,1.537
				l2.739,0.637L3783.304,1607.316z M3809.705,1612.799l-7.414-1.529l9.958,3.137l7.248,1.664L3809.705,1612.799z M3836.04,1618.206
				c-3.425-0.698-6.839-1.389-10.274-2.092l13.203,4.405l10.239,2.325L3836.04,1618.206z M3862.227,1623.508
				c-4.105-0.824-8.209-1.648-12.326-2.482l15.719,5.522c4.117,0.926,8.227,1.849,12.332,2.767L3862.227,1623.508z
				 M3888.343,1628.72c-4.609-0.912-9.224-1.829-13.85-2.753c5.872,2.17,11.755,4.346,17.61,6.506
				c4.651,1.033,9.295,2.063,13.93,3.086L3888.343,1628.72z M3914.303,1633.819c-5-0.973-10.011-1.956-15.031-2.943l19.233,7.426
				c5.035,1.104,10.065,2.205,15.083,3.296L3914.303,1633.819z M3940.134,1638.806c-5.283-1.01-10.581-2.032-15.886-3.058
				l20.539,8.279c5.344,1.156,10.682,2.307,16.004,3.447L3940.134,1638.806z M3965.86,1643.682
				c-5.517-1.034-11.052-2.083-16.594-3.137l21.68,9.096c5.583,1.189,11.16,2.372,16.719,3.544L3965.86,1643.682z
				 M3991.436,1648.431c-5.699-1.047-11.42-2.11-17.146-3.177l22.699,9.886c5.767,1.208,11.527,2.41,17.269,3.598L3991.436,1648.431
				z M4016.885,1653.054c-5.845-1.05-11.714-2.117-17.589-3.189l23.584,10.647c5.93,1.219,11.852,2.433,17.753,3.629
				L4016.885,1653.054z M4042.201,1657.544c-5.964-1.044-11.955-2.109-17.95-3.178l24.405,11.393
				c6.05,1.219,12.092,2.433,18.109,3.627L4042.201,1657.544z M4067.38,1661.896c-6.063-1.033-12.153-2.088-18.25-3.149
				l25.156,12.123c6.153,1.214,12.296,2.422,18.415,3.609L4067.38,1661.896z M3728.503,1593.323l-3.29-0.627l5.284,1.468l2.88,0.614
				L3728.503,1593.323z M3754.75,1598.278c-2.533-0.475-5.084-0.961-7.622-1.439l10.001,2.979l7.426,1.567L3754.75,1598.278z
				 M3780.832,1603.135c-3.471-0.641-6.965-1.298-10.446-1.946l13.312,4.209c3.45,0.722,6.904,1.444,10.347,2.159L3780.832,1603.135
				z M3806.847,1607.911c-4.136-0.754-8.295-1.522-12.443-2.284l15.702,5.256c4.143,0.855,8.289,1.714,12.42,2.562
				L3806.847,1607.911z M3832.723,1612.587c-4.623-0.829-9.269-1.672-13.908-2.511l17.648,6.216
				c4.643,0.947,9.29,1.895,13.917,2.833L3832.723,1612.587z M3858.508,1617.171c-4.99-0.88-10.005-1.774-15.015-2.665l19.168,7.092
				c5.04,1.013,10.083,2.029,15.106,3.03L3858.508,1617.171z M3884.157,1621.645c-5.287-0.914-10.594-1.842-15.901-2.77
				l20.483,7.928c5.338,1.058,10.676,2.113,15.994,3.157L3884.157,1621.645z M3909.681,1626.008
				c-5.508-0.931-11.034-1.877-16.564-2.826l21.607,8.724c5.574,1.085,11.144,2.17,16.696,3.239L3909.681,1626.008z
				 M3935.088,1630.257c-5.686-0.939-11.391-1.893-17.102-2.853l22.584,9.491c5.767,1.103,11.528,2.203,17.268,3.288
				L3935.088,1630.257z M3960.354,1634.382c-5.832-0.941-11.68-1.893-17.539-2.854l23.493,10.245
				c5.909,1.108,11.811,2.213,17.692,3.301L3960.354,1634.382z M3985.492,1638.382c-5.945-0.933-11.906-1.878-17.881-2.835
				l24.291,10.977c6.035,1.109,12.061,2.211,18.066,3.296L3985.492,1638.382z M4010.494,1642.249
				c-6.038-0.92-12.089-1.852-18.16-2.798l25.03,11.699c6.132,1.101,12.253,2.192,18.353,3.268L4010.494,1642.249z
				 M4035.365,1645.978c-6.117-0.902-12.247-1.816-18.397-2.745l25.723,12.408c6.215,1.088,12.412,2.165,18.593,3.226
				L4035.365,1645.978z M3674.121,1580.441l-3.454-0.589l5.547,1.442l3.075,0.595L3674.121,1580.441z M3700.097,1584.833
				l-7.672-1.29l10.214,2.854l7.432,1.42L3700.097,1584.833z M3726.02,1589.157l-10.454-1.733l13.371,3.994
				c3.452,0.655,6.885,1.298,10.33,1.95L3726.02,1589.157z M3751.807,1593.393c-4.131-0.674-8.259-1.345-12.401-2.024l15.772,5.001
				c4.128,0.774,8.236,1.533,12.353,2.301L3751.807,1593.393z M3777.499,1597.541c-4.607-0.738-9.207-1.47-13.828-2.217
				l17.593,5.904c4.638,0.858,9.247,1.697,13.871,2.547L3777.499,1597.541z M3803.075,1601.595
				c-4.97-0.781-9.934-1.555-14.922-2.346l19.144,6.76c5.003,0.911,9.982,1.806,14.969,2.706L3803.075,1601.595z M3828.542,1605.552
				c-5.253-0.807-10.5-1.61-15.773-2.431l20.414,7.568c5.311,0.951,10.597,1.885,15.888,2.823L3828.542,1605.552z
				 M3853.885,1609.402c-5.486-0.824-10.969-1.646-16.478-2.485l21.525,8.346c5.552,0.977,11.078,1.936,16.606,2.898
				L3853.885,1609.402z M3879.104,1613.143c-5.665-0.83-11.33-1.66-17.021-2.507l22.518,9.103c5.733,0.99,11.44,1.961,17.149,2.934
				L3879.104,1613.143z M3904.194,1616.768c-5.804-0.826-11.612-1.657-17.444-2.502l23.384,9.838
				c5.888,0.996,11.75,1.972,17.612,2.948L3904.194,1616.768z M3929.157,1620.271c-5.922-0.818-11.849-1.641-17.801-2.481
				l24.192,10.564c6.006,0.992,11.988,1.965,17.965,2.935L3929.157,1620.271z M3953.994,1623.65
				c-6.018-0.805-12.042-1.614-18.09-2.443l24.926,11.274c6.106,0.984,12.186,1.948,18.261,2.908L3953.994,1623.65z
				 M3978.684,1626.895c-6.091-0.786-12.186-1.577-18.307-2.388l25.602,11.976c6.186,0.97,12.346,1.919,18.5,2.864
				L3978.684,1626.895z M4003.249,1630.003c-6.154-0.764-12.317-1.532-18.505-2.323l26.25,12.67
				c6.251,0.951,12.477,1.88,18.695,2.805L4003.249,1630.003z M3620.198,1568.701l-3.62-0.543l5.612,1.352l3.298,0.576
				L3620.198,1568.701z M3646.002,1572.546l-7.745-1.143l10.129,2.646l7.668,1.323L3646.002,1572.546z M3671.663,1576.314
				l-10.491-1.53l13.334,3.738c3.494,0.594,6.998,1.195,10.485,1.786L3671.663,1576.314z M3697.264,1580.009l-12.443-1.787
				l15.667,4.695c4.164,0.7,8.331,1.402,12.483,2.094L3697.264,1580.009z M3722.744,1583.619c-4.617-0.646-9.24-1.299-13.871-1.956
				l17.548,5.578c4.646,0.769,9.291,1.539,13.923,2.299L3722.744,1583.619z M3748.108,1587.14c-4.97-0.682-9.95-1.37-14.937-2.063
				l19.039,6.4c5.022,0.819,10.041,1.635,15.047,2.441L3748.108,1587.14z M3773.374,1590.568
				c-5.249-0.703-10.511-1.414-15.781-2.131l20.324,7.191c5.304,0.849,10.603,1.693,15.887,2.529L3773.374,1590.568z
				 M3798.532,1593.9c-5.473-0.715-10.96-1.439-16.457-2.171l21.424,7.954c5.541,0.869,11.074,1.733,16.593,2.588L3798.532,1593.9z
				 M3823.559,1597.126c-5.654-0.718-11.321-1.448-17-2.182l22.382,8.691c5.73,0.88,11.453,1.754,17.16,2.618L3823.559,1597.126z
				 M3848.466,1600.243c-5.796-0.714-11.606-1.439-17.428-2.172l23.263,9.416c5.875,0.882,11.738,1.756,17.587,2.618
				L3848.466,1600.243z M3873.246,1603.242c-5.908-0.702-11.829-1.417-17.766-2.142l24.052,10.128
				c5.993,0.877,11.976,1.746,17.942,2.603L3873.246,1603.242z M3897.897,1606.123c-5.999-0.688-12.013-1.388-18.043-2.098
				l24.779,10.828c6.091,0.868,12.169,1.725,18.231,2.57L3897.897,1606.123z M3922.423,1608.879
				c-6.075-0.668-12.166-1.35-18.273-2.043l25.461,11.523c6.171,0.853,12.326,1.694,18.463,2.521L3922.423,1608.879z
				 M3946.806,1611.502c-6.132-0.644-12.28-1.303-18.446-1.974l26.095,12.208c6.23,0.833,12.445,1.654,18.642,2.46
				L3946.806,1611.502z M3971.061,1613.991c-6.18-0.618-12.378-1.248-18.595-1.895l26.693,12.888
				c6.284,0.81,12.55,1.606,18.801,2.389l-18.776-9.34L3971.061,1613.991z M3566.762,1558.108l-3.807-0.497l5.713,1.27l3.478,0.534
				L3566.762,1558.108z M3592.311,1561.391l-7.914-1.015l10.255,2.481l7.713,1.17L3592.311,1561.391z M3617.809,1564.613
				c-3.53-0.442-7.075-0.894-10.613-1.34l13.332,3.495l10.521,1.575L3617.809,1564.613z M3643.16,1567.755
				c-4.154-0.509-8.328-1.029-12.494-1.546l15.677,4.408l12.467,1.838L3643.16,1567.755z M3668.44,1570.823
				c-4.62-0.554-9.261-1.122-13.897-1.685l17.468,5.247c4.655,0.678,9.305,1.354,13.945,2.023L3668.44,1570.823z M3693.608,1573.807
				c-4.974-0.582-9.971-1.178-14.963-1.772l18.986,6.047c5.011,0.717,10.019,1.432,15.013,2.139L3693.608,1573.807z
				 M3718.66,1576.705c-5.244-0.599-10.513-1.214-15.776-1.824l20.225,6.81c5.301,0.745,10.601,1.488,15.881,2.219L3718.66,1576.705
				z M3743.61,1579.507c-5.458-0.605-10.943-1.226-16.424-1.845l21.311,7.552c5.524,0.758,11.051,1.518,16.552,2.262
				L3743.61,1579.507z M3768.452,1582.212c-5.637-0.603-11.299-1.225-16.96-1.845l22.276,8.277c5.71,0.765,11.423,1.533,17.11,2.283
				L3768.452,1582.212z M3793.158,1584.811c-5.778-0.597-11.582-1.213-17.385-1.827l23.129,8.988
				c5.864,0.765,11.73,1.536,17.566,2.282L3793.158,1584.811z M3817.753,1587.303c-5.889-0.586-11.805-1.188-17.724-1.792
				l23.917,9.687c5.977,0.76,11.955,1.518,17.904,2.258L3817.753,1587.303z M3842.22,1589.679
				c-5.98-0.568-11.985-1.154-17.995-1.745l24.64,10.38c6.073,0.747,12.143,1.494,18.185,2.219L3842.22,1589.679z
				 M3866.561,1591.937c-6.053-0.549-12.13-1.115-18.214-1.685l25.31,11.066c6.15,0.731,12.293,1.458,18.411,2.168l-21.798-9.869
				L3866.561,1591.937z M3890.771,1594.069c-6.112-0.523-12.248-1.065-18.392-1.614l25.941,11.744
				c6.214,0.711,12.418,1.417,18.598,2.104l-10.371-4.852L3890.771,1594.069z M3914.844,1596.07
				c-6.156-0.496-12.334-1.01-18.525-1.534l10.9,5.1l15.64,7.317c6.26,0.689,12.507,1.369,18.733,2.031L3914.844,1596.07z
				 M3938.79,1597.937c-6.193-0.466-12.408-0.951-18.639-1.445l23.392,11.296l3.71,1.79c6.3,0.662,12.59,1.315,18.854,1.948
				L3938.79,1597.937z M3513.693,1548.647l-4.023-0.436l5.892,1.19l3.739,0.499L3513.693,1548.647z M3539.035,1551.367l-7.951-0.846
				l10.289,2.294l7.819,1.024L3539.035,1551.367z M3564.282,1554.025l-10.601-1.106l13.372,3.247l10.545,1.357L3564.282,1554.025z
				 M3589.452,1556.616c-4.151-0.422-8.296-0.842-12.459-1.27l15.621,4.104c4.168,0.531,8.318,1.052,12.477,1.578L3589.452,1556.616
				z M3614.501,1559.133c-4.605-0.456-9.205-0.911-13.825-1.375l17.44,4.914c4.632,0.58,9.245,1.148,13.865,1.721L3614.501,1559.133
				z M3639.463,1561.576c-4.952-0.478-9.902-0.953-14.872-1.441l18.889,5.68c5.001,0.613,9.98,1.213,14.964,1.818L3639.463,1561.576
				z M3664.317,1563.934c-5.221-0.487-10.444-0.976-15.685-1.474l20.14,6.425c5.276,0.633,10.527,1.253,15.784,1.874
				L3664.317,1563.934z M3689.057,1566.204c-5.434-0.489-10.87-0.981-16.325-1.484l21.219,7.151
				c5.498,0.644,10.97,1.271,16.447,1.902L3689.057,1566.204z M3713.696,1568.383c-5.603-0.484-11.213-0.976-16.84-1.476
				l22.166,7.863c5.676,0.647,11.326,1.276,16.977,1.908L3713.696,1568.383z M3738.235,1570.466
				c-5.748-0.476-11.507-0.961-17.281-1.455l23.022,8.561c5.825,0.644,11.627,1.274,17.427,1.901L3738.235,1570.466z
				 M3762.639,1572.444c-5.863-0.462-11.744-0.937-17.635-1.419l23.793,9.249c5.948,0.636,11.875,1.259,17.796,1.877
				L3762.639,1572.444z M3786.93,1574.314c-5.955-0.445-11.93-0.905-17.914-1.371l24.508,9.931
				c6.043,0.624,12.072,1.236,18.085,1.839l-13.818-5.822L3786.93,1574.314z M3811.1,1576.073
				c-6.03-0.425-12.086-0.868-18.146-1.315l5.446,2.295l19.728,8.313c6.124,0.608,12.232,1.207,18.324,1.792l-2.435-1.066
				L3811.1,1576.073z M3835.129,1577.707c-6.087-0.4-12.202-0.82-18.322-1.244l17.838,7.798l7.962,3.482
				c6.186,0.587,12.361,1.167,18.511,1.73L3835.129,1577.707z M3859.028,1579.216c-6.131-0.371-12.292-0.764-18.459-1.162
				l26.388,11.946c6.238,0.564,12.471,1.125,18.673,1.662L3859.028,1579.216z M3882.792,1580.596
				c-6.166-0.342-12.361-0.704-18.563-1.073l26.952,12.609c6.274,0.538,12.542,1.069,18.779,1.579L3882.792,1580.596z
				 M3906.426,1581.84c-6.194-0.31-12.412-0.638-18.645-0.976l27.486,13.269c6.305,0.507,12.601,1.008,18.869,1.488
				L3906.426,1581.84z M3461.221,1540.373l-4.167-0.359l5.911,1.075l3.946,0.441L3461.221,1540.373z M3486.298,1542.522
				l-8.103-0.689l10.315,2.091l7.997,0.88L3486.298,1542.522z M3511.313,1544.614l-10.648-0.886l13.319,2.979l10.644,1.153
				L3511.313,1544.614z M3536.244,1546.644l-12.493-1.01l15.587,3.794c4.182,0.445,8.373,0.894,12.544,1.332L3536.244,1546.644z
				 M3561.081,1548.605c-4.605-0.356-9.214-0.719-13.833-1.083l17.343,4.564c4.648,0.484,9.296,0.968,13.929,1.446
				L3561.081,1548.605z M3585.811,1550.495c-4.944-0.37-9.891-0.743-14.852-1.124l18.809,5.309
				c4.992,0.508,9.979,1.013,14.954,1.511L3585.811,1550.495z M3610.45,1552.308c-5.21-0.376-10.422-0.755-15.65-1.141l20.025,6.029
				c5.27,0.522,10.534,1.041,15.787,1.552L3610.45,1552.308z M3634.985,1554.04c-5.417-0.374-10.838-0.75-16.276-1.137l21.085,6.736
				c5.487,0.528,10.961,1.05,16.427,1.566L3634.985,1554.04z M3659.412,1555.684c-5.584-0.367-11.174-0.736-16.782-1.117
				l22.028,7.43c5.659,0.528,11.304,1.047,16.939,1.561L3659.412,1555.684z M3683.732,1557.237
				c-5.719-0.354-11.441-0.713-17.184-1.083l22.866,8.114c5.801,0.522,11.582,1.033,17.358,1.541l-17.499-6.51L3683.732,1557.237z
				 M3707.956,1558.693c-5.834-0.34-11.67-0.681-17.531-1.038l23.635,8.792c5.921,0.513,11.822,1.013,17.716,1.508l-6.357-2.472
				L3707.956,1558.693z M3732.047,1560.047c-5.926-0.322-11.856-0.646-17.811-0.984l11.75,4.569l12.596,4.896
				c6.016,0.499,12.013,0.983,18.002,1.462L3732.047,1560.047z M3756.023,1561.292c-5.995-0.296-11.999-0.6-18.025-0.919
				l24.181,9.798l0.824,0.334c6.093,0.483,12.161,0.945,18.223,1.406L3756.023,1561.292z M3779.881,1562.426
				c-6.057-0.272-12.128-0.555-18.216-0.852l25.639,10.804c6.155,0.46,12.281,0.9,18.404,1.338L3779.881,1562.426z
				 M3803.607,1563.444c-6.101-0.245-12.226-0.51-18.364-0.779l26.235,11.468c6.203,0.438,12.379,0.853,18.547,1.264
				L3803.607,1563.444z M3827.206,1564.335c-6.14-0.216-12.309-0.453-18.484-0.694l26.794,12.126
				c6.244,0.411,12.465,0.805,18.673,1.188L3827.206,1564.335z M3850.657,1565.091c-6.164-0.182-12.355-0.386-18.557-0.597
				l27.327,12.781c6.275,0.38,12.534,0.751,18.771,1.103L3850.657,1565.091z M3873.985,1565.714
				c-6.186-0.148-12.397-0.315-18.621-0.493l27.838,13.434c6.298,0.349,12.588,0.691,18.847,1.011L3873.985,1565.714z
				 M3409.122,1533.255l-4.333-0.281l6.115,0.983l4.024,0.36L3409.122,1533.255z M3434.023,1534.833l-8.216-0.518l10.367,1.894
				l8.071,0.708L3434.023,1534.833z M3458.793,1536.359l-10.749-0.659l13.349,2.716l10.679,0.918L3458.793,1536.359z
				 M3483.506,1537.828c-4.162-0.242-8.344-0.494-12.519-0.742l15.544,3.482l12.511,1.053L3483.506,1537.828z M3508.119,1539.231
				c-4.604-0.258-9.226-0.524-13.845-0.789l17.296,4.219c4.636,0.383,9.269,0.763,13.891,1.14L3508.119,1539.231z
				 M3532.632,1540.565c-4.937-0.262-9.891-0.533-14.844-0.805l18.712,4.931c4.99,0.4,9.982,0.803,14.955,1.193L3532.632,1540.565z
				 M3557.042,1541.827c-5.194-0.261-10.403-0.532-15.616-0.804l19.93,5.633c5.256,0.409,10.515,0.82,15.752,1.218
				L3557.042,1541.827z M3581.362,1543.014c-5.401-0.256-10.818-0.519-16.24-0.787l20.974,6.318
				c5.471,0.411,10.942,0.821,16.392,1.219L3581.362,1543.014z M3605.579,1544.117c-5.565-0.245-11.141-0.496-16.728-0.756
				l21.895,6.998c5.643,0.407,11.281,0.811,16.901,1.205l-10.57-3.567L3605.579,1544.117z M3629.691,1545.136
				c-5.699-0.232-11.408-0.468-17.132-0.714l5.018,1.692l17.714,5.977c5.781,0.398,11.553,0.792,17.307,1.175L3629.691,1545.136z
				 M3653.692,1546.062c-5.804-0.213-11.617-0.432-17.447-0.663l17.442,6.19l6.048,2.146c5.892,0.387,11.771,0.765,17.636,1.134
				L3653.692,1546.062z M3677.6,1546.893c-5.898-0.194-11.803-0.393-17.728-0.604l24.191,9c5.99,0.372,11.963,0.732,17.925,1.084
				L3677.6,1546.893z M3701.376,1547.622c-5.971-0.171-11.948-0.347-17.948-0.537l24.842,9.657
				c6.068,0.353,12.115,0.693,18.152,1.025L3701.376,1547.622z M3725.041,1548.244c-6.027-0.145-12.061-0.295-18.116-0.461
				l25.453,10.313c6.128,0.332,12.233,0.648,18.33,0.956L3725.041,1548.244z M3748.586,1548.756
				c-6.071-0.116-12.151-0.239-18.255-0.38l26.036,10.966c6.177,0.307,12.33,0.596,18.474,0.882L3748.586,1548.756z
				 M3772.004,1549.15c-6.107-0.086-12.236-0.19-18.378-0.299l26.61,11.626c6.21,0.281,12.397,0.541,18.575,0.796L3772.004,1549.15z
				 M3795.291,1549.418c-6.135-0.053-12.299-0.128-18.469-0.208l27.15,12.281c6.243,0.251,12.459,0.482,18.664,0.707
				L3795.291,1549.418z M3818.433,1549.553c-6.153-0.018-12.332-0.058-18.522-0.106l27.667,12.933
				c6.264,0.219,12.508,0.424,18.732,0.614L3818.433,1549.553z M3841.452,1549.557c-6.169,0.016-12.36,0.015-18.567,0.003
				l28.157,13.576c6.282,0.185,12.555,0.363,18.798,0.519L3841.452,1549.557z M3357.519,1527.317l-4.428-0.183l6.187,0.866
				l4.219,0.286L3357.519,1527.317z M3382.163,1528.316l-8.246-0.326l10.415,1.682l8.171,0.539L3382.163,1528.316z
				 M3406.735,1529.268l-10.755-0.408l13.317,2.438l10.751,0.688L3406.735,1529.268z M3431.196,1530.165
				c-4.168-0.148-8.333-0.296-12.511-0.45l15.513,3.163c4.186,0.261,8.361,0.518,12.538,0.775L3431.196,1530.165z
				 M3455.583,1531.005c-4.589-0.152-9.183-0.307-13.786-0.467l17.232,3.866c4.624,0.28,9.231,0.552,13.841,0.825L3455.583,1531.005
				z M3479.889,1531.785c-4.922-0.15-9.855-0.308-14.793-0.467l18.663,4.559c4.962,0.289,9.906,0.567,14.852,0.848
				L3479.889,1531.785z M3504.101,1532.497c-5.179-0.146-10.376-0.299-15.573-0.453l19.842,5.234
				c5.234,0.292,10.453,0.575,15.669,0.858l-15.033-4.251L3504.101,1532.497z M3528.198,1533.135
				c-5.379-0.136-10.779-0.28-16.179-0.425l20.878,5.903c5.445,0.289,10.88,0.574,16.302,0.852l-4.202-1.267L3528.198,1533.135z
				 M3552.198,1533.693c-5.542-0.12-11.104-0.25-16.67-0.384l9.923,2.99l11.867,3.575c5.618,0.282,11.234,0.566,16.829,0.834
				L3552.198,1533.693z M3576.097,1534.172c-5.672-0.103-11.36-0.216-17.057-0.336l22.459,7.177l0.148,0.047
				c5.756,0.272,11.51,0.543,17.24,0.801L3576.097,1534.172z M3599.889,1534.564c-5.778-0.086-11.571-0.18-17.376-0.28l23.356,7.88
				c5.869,0.258,11.73,0.513,17.572,0.754L3599.889,1534.564z M3623.578,1534.864c-5.864-0.062-11.74-0.134-17.631-0.215
				l24.048,8.533c5.957,0.241,11.904,0.475,17.833,0.699L3623.578,1534.864z M3647.169,1535.07
				c-5.938-0.041-11.888-0.086-17.855-0.145l24.696,9.183c6.035,0.221,12.059,0.434,18.064,0.637L3647.169,1535.07z
				 M3670.631,1535.175c-5.999-0.015-12.004-0.035-18.031-0.068l25.302,9.831c6.097,0.199,12.177,0.387,18.244,0.566
				L3670.631,1535.175z M3693.984,1535.173c-6.04,0.016-12.089,0.024-18.163,0.017l25.875,10.475
				c6.146,0.176,12.271,0.337,18.384,0.49L3693.984,1535.173z M3717.224,1535.063c-6.075,0.046-12.168,0.08-18.28,0.102
				l26.427,11.124c6.185,0.148,12.344,0.28,18.495,0.404L3717.224,1535.063z M3740.33,1534.836
				c-6.104,0.077-12.234,0.135-18.374,0.188l26.972,11.774c6.209,0.118,12.395,0.22,18.57,0.315L3740.33,1534.836z
				 M3763.294,1534.477c-6.121,0.112-12.27,0.205-18.427,0.289l27.488,12.425c6.233,0.087,12.44,0.157,18.636,0.218
				L3763.294,1534.477z M3786.125,1533.992c-6.133,0.146-12.29,0.278-18.462,0.397l27.983,13.067
				c6.248,0.055,12.479,0.097,18.688,0.122L3786.125,1533.992z M3808.836,1533.375c-6.143,0.186-12.306,0.354-18.488,0.509
				l28.452,13.706c6.259,0.018,12.51,0.029,18.729,0.018L3808.836,1533.375z M3306.441,1522.574l-4.605-0.083l6.313,0.743
				l4.344,0.192L3306.441,1522.574z M3330.839,1522.991l-8.304-0.138l10.439,1.465l8.21,0.351L3330.839,1522.991z
				 M3355.162,1523.363l-10.777-0.159l13.31,2.157l10.788,0.446L3355.162,1523.363z M3379.408,1523.686l-12.515-0.16l15.44,2.833
				c4.201,0.166,8.405,0.335,12.595,0.496L3379.408,1523.686z M3403.545,1523.956c-4.586-0.048-9.171-0.092-13.771-0.144l17.137,3.5
				l13.876,0.516L3403.545,1523.956z M3427.603,1524.17c-4.898-0.038-9.795-0.075-14.708-0.12l18.525,4.16
				c4.956,0.177,9.901,0.347,14.841,0.517l-9.142-2.234L3427.603,1524.17z M3451.583,1524.321
				c-5.148-0.024-10.299-0.052-15.467-0.086l1.373,0.336l18.335,4.482c5.214,0.173,10.415,0.338,15.611,0.502L3451.583,1524.321z
				 M3475.489,1524.406c-5.356-0.01-10.725-0.027-16.103-0.048l14.059,3.707l6.691,1.764c5.421,0.167,10.823,0.323,16.226,0.48
				L3475.489,1524.406z M3499.281,1524.422c-5.515,0.007-11.05,0-16.589-0.005l21.66,6.125c5.587,0.156,11.155,0.301,16.719,0.445
				L3499.281,1524.422z M3522.964,1524.355c-5.645,0.026-11.31,0.039-16.981,0.051l22.478,6.773
				c5.726,0.143,11.438,0.278,17.139,0.406L3522.964,1524.355z M3546.543,1524.207c-5.749,0.046-11.513,0.083-17.288,0.113
				l23.219,7.417c5.836,0.127,11.669,0.251,17.479,0.362L3546.543,1524.207z M3570.02,1523.973
				c-5.835,0.069-11.683,0.129-17.545,0.182l23.903,8.06c5.927,0.108,11.85,0.213,17.748,0.304L3570.02,1523.973z
				 M3593.393,1523.648c-5.903,0.094-11.818,0.179-17.749,0.256l24.541,8.701c5.999,0.087,11.989,0.17,17.959,0.239
				L3593.393,1523.648z M3616.67,1523.231c-5.963,0.12-11.937,0.233-17.93,0.334l25.14,9.341c6.063,0.066,12.112,0.121,18.145,0.167
				L3616.67,1523.231z M3639.823,1522.713c-6.01,0.148-12.028,0.29-18.068,0.417l25.705,9.98c6.112,0.039,12.208,0.068,18.289,0.087
				L3639.823,1522.713z M3662.867,1522.09c-6.042,0.18-12.098,0.35-18.175,0.507l26.245,10.616c6.151,0.012,12.281,0.012,18.4,0.004
				L3662.867,1522.09z M3685.789,1521.355c-6.071,0.212-12.168,0.407-18.274,0.595l26.785,11.261
				c6.18-0.016,12.338-0.047,18.485-0.086L3685.789,1521.355z M3708.566,1520.497c-6.089,0.245-12.202,0.474-18.328,0.693
				l27.306,11.908c6.199-0.047,12.374-0.109,18.538-0.18L3708.566,1520.497z M3731.22,1519.518c-6.101,0.28-12.223,0.547-18.361,0.8
				l27.8,12.55c6.216-0.079,12.414-0.171,18.589-0.279L3731.22,1519.518z M3753.747,1518.414c-6.106,0.317-12.233,0.62-18.378,0.909
				l28.262,13.184c6.223-0.115,12.435-0.237,18.621-0.38L3753.747,1518.414z M3776.154,1517.18
				c-6.113,0.356-12.242,0.698-18.393,1.024l28.714,13.815c6.23-0.151,12.446-0.313,18.636-0.495
				C3795.474,1526.748,3785.818,1521.965,3776.154,1517.18z M3255.86,1519.023l-4.726,0.027l6.436,0.614l4.503,0.094
				L3255.86,1519.023z M3280.006,1518.855l-8.4,0.061l10.503,1.242l8.265,0.156L3280.006,1518.855z M3304.101,1518.649
				c-3.595,0.034-7.206,0.062-10.809,0.094l13.316,1.874l10.752,0.186L3304.101,1518.649z M3328.093,1518.392
				c-4.166,0.049-8.34,0.092-12.513,0.137l15.42,2.503l12.544,0.198l-14.004-2.572L3328.093,1518.392z M3352.007,1518.089
				c-4.58,0.063-9.167,0.122-13.76,0.179l17.073,3.135c4.627,0.066,9.255,0.134,13.869,0.195l-3.823-0.781L3352.007,1518.089z
				 M3375.817,1517.734c-4.889,0.077-9.784,0.154-14.689,0.225l4.547,0.929l13.894,2.839c4.947,0.061,9.895,0.121,14.827,0.176
				L3375.817,1517.734z M3399.562,1517.32c-5.131,0.095-10.266,0.189-15.413,0.277l17.418,3.909l2.184,0.49
				c5.192,0.052,10.378,0.101,15.554,0.146L3399.562,1517.32z M3423.226,1516.845c-5.329,0.115-10.659,0.228-16.007,0.332
				l20.603,5.033c5.397,0.041,10.783,0.075,16.16,0.107L3423.226,1516.845z M3446.817,1516.304
				c-5.49,0.136-10.99,0.265-16.505,0.389l21.497,5.667c5.567,0.027,11.119,0.047,16.667,0.064L3446.817,1516.304z
				 M3470.294,1515.695c-5.612,0.156-11.248,0.301-16.886,0.445l22.316,6.307c5.693,0.011,11.368,0.013,17.038,0.013
				L3470.294,1515.695z M3493.656,1515.001c-5.717,0.179-11.453,0.349-17.197,0.513l23.069,6.946
				c5.803-0.007,11.588-0.022,17.365-0.044L3493.656,1515.001z M3516.919,1514.227c-5.802,0.203-11.618,0.398-17.446,0.586
				l23.748,7.58c5.895-0.027,11.781-0.056,17.648-0.099L3516.919,1514.227z M3540.081,1513.369
				c-5.87,0.228-11.755,0.45-17.654,0.662l24.376,8.211c5.968-0.048,11.928-0.1,17.866-0.166L3540.081,1513.369z M3563.141,1512.422
				c-5.926,0.256-11.86,0.505-17.813,0.742l24.965,8.843c6.024-0.07,12.038-0.148,18.032-0.238L3563.141,1512.422z
				 M3586.105,1511.38c-5.973,0.285-11.954,0.563-17.957,0.827l25.529,9.476c6.076-0.097,12.136-0.203,18.18-0.318L3586.105,1511.38
				z M3608.951,1510.241c-6.008,0.318-12.035,0.62-18.078,0.914l26.067,10.109c6.116-0.125,12.214-0.26,18.298-0.405
				L3608.951,1510.241z M3631.669,1508.99c-6.035,0.349-12.092,0.681-18.163,1.006l26.603,10.748
				c6.144-0.153,12.268-0.32,18.381-0.494C3649.564,1516.499,3640.621,1512.746,3631.669,1508.99z M3654.264,1507.626
				c-6.056,0.381-12.132,0.748-18.223,1.106l27.123,11.389c6.165-0.184,12.309-0.381,18.44-0.589L3654.264,1507.626z
				 M3676.734,1506.149c-6.067,0.415-12.152,0.817-18.256,1.207l27.612,12.025c6.18-0.217,12.344-0.441,18.486-0.683
				C3695.307,1514.516,3686.029,1510.336,3676.734,1506.149z M3699.086,1504.553c-6.075,0.45-12.165,0.89-18.277,1.315
				l28.064,12.651c6.19-0.25,12.367-0.51,18.519-0.786L3699.086,1504.553z M3721.314,1502.833
				c-6.076,0.487-12.168,0.968-18.282,1.428c9.519,4.43,19.017,8.855,28.508,13.279c6.192-0.285,12.369-0.583,18.523-0.897
				C3740.493,1512.041,3730.91,1507.439,3721.314,1502.833z M3743.421,1500.984c-6.072,0.532-12.168,1.046-18.282,1.546
				c9.661,4.639,19.304,9.272,28.939,13.903c6.194-0.323,12.37-0.659,18.526-1.013
				C3762.89,1510.612,3753.161,1505.799,3743.421,1500.984z M3205.761,1516.676l-4.831,0.151l6.471,0.469l4.632-0.016
				L3205.761,1516.676z M3229.682,1515.917l-8.417,0.273l10.468,1.004l8.378-0.039L3229.682,1515.917z M3253.503,1515.123
				l-10.798,0.366l13.256,1.572l10.804-0.07l-8.768-1.235L3253.503,1515.123z M3277.269,1514.292
				c-4.146,0.151-8.306,0.295-12.464,0.441l15.342,2.161c4.174-0.032,8.338-0.069,12.501-0.106L3277.269,1514.292z
				 M3300.952,1513.413c-4.562,0.175-9.14,0.342-13.717,0.512l6.76,1.097l10.241,1.665c4.601-0.045,9.186-0.094,13.771-0.144
				L3300.952,1513.413z M3324.547,1512.482c-4.879,0.198-9.767,0.391-14.661,0.582l18.347,3.366
				c4.931-0.057,9.853-0.116,14.767-0.18L3324.547,1512.482z M3348.045,1511.5c-5.117,0.219-10.242,0.437-15.377,0.649l19.481,3.978
				c5.18-0.072,10.362-0.142,15.523-0.222L3348.045,1511.5z M3371.48,1510.46c-5.307,0.241-10.617,0.483-15.941,0.716l20.464,4.593
				c5.374-0.087,10.741-0.177,16.094-0.273L3371.48,1510.46z M3394.822,1509.362c-5.457,0.265-10.919,0.528-16.397,0.783
				l21.332,5.211c5.538-0.105,11.063-0.213,16.579-0.327L3394.822,1509.362z M3418.091,1508.196
				c-5.583,0.29-11.181,0.571-16.787,0.85l22.129,5.835c5.671-0.122,11.324-0.253,16.974-0.386L3418.091,1508.196z
				 M3441.236,1506.956c-5.684,0.315-11.386,0.62-17.095,0.92l22.892,6.463c5.771-0.143,11.521-0.294,17.268-0.448
				L3441.236,1506.956z M3464.281,1505.637c-5.769,0.34-11.55,0.672-17.344,0.998l23.58,7.092
				c5.858-0.164,11.703-0.335,17.533-0.513L3464.281,1505.637z M3487.23,1504.24c-5.834,0.366-11.681,0.725-17.543,1.075l24.2,7.716
				c5.933-0.187,11.856-0.377,17.759-0.579L3487.23,1504.24z M3510.081,1502.759c-5.89,0.394-11.79,0.781-17.708,1.156l24.786,8.34
				c5.989-0.21,11.968-0.425,17.927-0.654L3510.081,1502.759z M3532.833,1501.19c-5.931,0.424-11.876,0.838-17.839,1.244
				l25.342,8.963c6.035-0.236,12.055-0.482,18.059-0.736L3532.833,1501.19z M3555.482,1499.526
				c-5.97,0.454-11.96,0.895-17.964,1.329l25.884,9.593c6.077-0.262,12.135-0.537,18.181-0.819L3555.482,1499.526z
				 M3577.991,1497.753c-5.999,0.487-12.016,0.96-18.05,1.425l26.415,10.228c6.109-0.292,12.196-0.598,18.273-0.909
				L3577.991,1497.753z M3600.397,1495.878c-6.021,0.519-12.057,1.027-18.111,1.523l26.93,10.863
				c6.131-0.321,12.242-0.656,18.336-1.002C3618.513,1503.47,3609.461,1499.674,3600.397,1495.878z M3622.69,1493.896
				c-6.034,0.552-12.082,1.095-18.151,1.623c9.146,3.832,18.281,7.663,27.402,11.49c6.145-0.354,12.277-0.718,18.385-1.098
				C3641.126,1501.91,3631.916,1497.905,3622.69,1493.896z M3644.859,1491.803c-6.038,0.588-12.093,1.165-18.167,1.729
				c9.296,4.04,18.582,8.077,27.852,12.112c6.154-0.387,12.288-0.787,18.403-1.201L3644.859,1491.803z M3666.907,1489.589
				c-6.037,0.628-12.1,1.239-18.179,1.838c9.446,4.248,18.875,8.494,28.295,12.736c6.159-0.422,12.298-0.86,18.417-1.308
				C3685.942,1498.436,3676.433,1494.015,3666.907,1489.589z M3688.806,1487.241c-6.036,0.666-12.095,1.318-18.171,1.953
				c9.599,4.46,19.18,8.917,28.751,13.371c6.158-0.458,12.292-0.933,18.412-1.42
				C3708.146,1496.512,3698.482,1491.878,3688.806,1487.241z M3710.584,1484.766c-6.033,0.705-12.085,1.396-18.158,2.072
				c9.746,4.671,19.477,9.339,29.196,14.004c6.156-0.496,12.287-1.011,18.403-1.537
				C3730.226,1494.461,3720.411,1489.615,3710.584,1484.766z M3156.225,1515.541l-4.971,0.279l6.544,0.32l4.773-0.137
				L3156.225,1515.541z M3179.854,1514.189l-8.47,0.487l10.479,0.764l8.408-0.252l-3.671-0.353L3179.854,1514.189z
				 M3203.44,1512.805l-10.774,0.64l13.193,1.267l10.823-0.337L3203.44,1512.805z M3226.939,1511.387
				c-4.137,0.253-8.274,0.507-12.423,0.758l7.942,0.942l7.303,0.867l12.502-0.411L3226.939,1511.387z M3250.387,1509.928
				l-13.651,0.856l16.885,2.374l13.725-0.478L3250.387,1509.928z M3273.761,1508.424c-4.858,0.318-9.729,0.632-14.601,0.943
				l18.224,2.959c4.906-0.177,9.799-0.36,14.688-0.542L3273.761,1508.424z M3297.046,1506.868c-5.1,0.346-10.21,0.688-15.328,1.028
				l19.352,3.55c5.16-0.197,10.309-0.398,15.451-0.602L3297.046,1506.868z M3320.207,1505.261
				c-5.276,0.372-10.56,0.741-15.854,1.106l20.317,4.149c5.356-0.218,10.709-0.436,16.046-0.66L3320.207,1505.261z M3343.303,1503.6
				c-5.419,0.397-10.842,0.792-16.28,1.181l21.186,4.751c5.509-0.238,11.011-0.479,16.501-0.725
				C3357.598,1507.074,3350.432,1505.335,3343.303,1503.6z M3366.328,1501.875c-5.544,0.426-11.101,0.845-16.668,1.259l21.995,5.357
				c5.628-0.258,11.244-0.521,16.851-0.789L3366.328,1501.875z M3389.291,1500.078c-5.661,0.453-11.338,0.897-17.025,1.337
				l22.738,5.975c5.742-0.28,11.468-0.568,17.186-0.859L3389.291,1500.078z M3412.111,1498.212
				c-5.731,0.479-11.477,0.95-17.232,1.414l23.404,6.598c5.821-0.302,11.629-0.613,17.425-0.929L3412.111,1498.212z
				 M3434.848,1496.271c-5.8,0.505-11.612,1.005-17.438,1.496l24.025,7.214c5.896-0.326,11.783-0.657,17.649-0.998
				L3434.848,1496.271z M3457.49,1494.252c-5.852,0.534-11.716,1.061-17.596,1.58l24.598,7.829
				c5.952-0.352,11.892-0.707,17.816-1.075L3457.49,1494.252z M3480.033,1492.15c-5.894,0.565-11.808,1.117-17.735,1.665
				l25.152,8.447c5.999-0.378,11.982-0.762,17.951-1.156L3480.033,1492.15z M3502.447,1489.95
				c-5.928,0.594-11.875,1.179-17.835,1.754l25.703,9.076c6.035-0.405,12.052-0.82,18.057-1.242
				C3519.743,1496.343,3511.102,1493.148,3502.447,1489.95z M3524.772,1487.656c-5.961,0.626-11.936,1.244-17.928,1.849l26.23,9.704
				c6.067-0.434,12.115-0.877,18.15-1.331C3542.418,1494.472,3533.602,1491.064,3524.772,1487.656z M3546.98,1485.267
				c-5.984,0.659-11.979,1.308-17.993,1.946c8.92,3.444,17.827,6.888,26.723,10.328c6.092-0.463,12.171-0.936,18.229-1.422
				L3546.98,1485.267z M3569.088,1482.777c-5.994,0.694-12.007,1.374-18.037,2.045c9.073,3.651,18.134,7.299,27.182,10.945
				c6.108-0.495,12.2-0.999,18.273-1.519C3587.378,1490.427,3578.24,1486.603,3569.088,1482.777z M3591.058,1480.17
				c-6,0.73-12.021,1.445-18.058,2.15c9.229,3.858,18.446,7.715,27.649,11.57c6.116-0.527,12.214-1.069,18.293-1.62
				C3609.659,1488.24,3600.366,1484.206,3591.058,1480.17z M3612.899,1477.449c-6.002,0.765-12.022,1.516-18.061,2.256
				c9.383,4.069,18.752,8.136,28.109,12.201c6.12-0.562,12.219-1.137,18.302-1.724
				C3631.811,1485.939,3622.363,1481.695,3612.899,1477.449z M3634.63,1474.611c-6.004,0.802-12.024,1.592-18.063,2.368
				c9.535,4.279,19.051,8.556,28.56,12.83c6.121-0.597,12.223-1.208,18.304-1.834
				C3653.843,1483.523,3644.244,1479.068,3634.63,1474.611z M3656.24,1471.653c-5.996,0.844-12.012,1.669-18.047,2.483
				c9.678,4.487,19.338,8.971,28.989,13.455c6.114-0.635,12.213-1.284,18.287-1.948
				C3675.736,1480.981,3665.995,1476.32,3656.24,1471.653z M3677.712,1468.56c-5.984,0.885-11.992,1.754-18.019,2.608
				c9.812,4.693,19.609,9.383,29.394,14.072c6.108-0.675,12.199-1.363,18.268-2.067
				C3697.487,1478.303,3687.606,1473.432,3677.712,1468.56z M3107.177,1515.62l-5.074,0.417l6.584,0.164l4.919-0.266
				L3107.177,1515.62z M3130.576,1513.674l-8.533,0.712l10.458,0.513l8.458-0.47L3130.576,1513.674z M3153.883,1511.698
				l-10.793,0.917l7.976,0.58l5.183,0.378l10.792-0.614L3153.883,1511.698z M3177.153,1509.69l-12.405,1.076l15.166,1.454
				l12.478-0.725L3177.153,1509.69z M3200.345,1507.646c-4.527,0.405-9.058,0.807-13.601,1.207l16.743,1.986
				c4.575-0.273,9.147-0.546,13.71-0.822L3200.345,1507.646z M3223.478,1505.563c-4.831,0.442-9.675,0.876-14.521,1.312
				l18.067,2.542c4.884-0.3,9.759-0.603,14.629-0.907L3223.478,1505.563z M3246.49,1503.433c-5.059,0.473-10.128,0.943-15.204,1.411
				l19.189,3.114c5.133-0.326,10.252-0.656,15.368-0.987L3246.49,1503.433z M3269.436,1501.254
				c-5.245,0.505-10.499,1.005-15.762,1.501l20.174,3.696c5.326-0.349,10.646-0.701,15.954-1.058L3269.436,1501.254z
				 M3292.296,1499.024c-5.395,0.534-10.797,1.064-16.212,1.59c7.016,1.427,14.055,2.854,21.052,4.281
				c5.47-0.372,10.935-0.746,16.385-1.127L3292.296,1499.024z M3315.1,1496.737c-5.515,0.562-11.044,1.12-16.584,1.673l21.822,4.877
				c5.594-0.396,11.177-0.797,16.748-1.201L3315.1,1496.737z M3337.806,1494.382c-5.619,0.592-11.252,1.176-16.895,1.756
				l22.537,5.484c5.701-0.42,11.385-0.846,17.064-1.275C3352.937,1498.36,3345.399,1496.372,3337.806,1494.382z M3360.428,1491.961
				c-5.704,0.618-11.418,1.233-17.146,1.841c7.756,2.033,15.467,4.062,23.203,6.095c5.798-0.445,11.581-0.896,17.352-1.353
				L3360.428,1491.961z M3382.941,1489.473c-5.761,0.647-11.529,1.288-17.314,1.922l23.824,6.703
				c5.857-0.467,11.704-0.941,17.533-1.424L3382.941,1489.473z M3405.373,1486.911c-5.811,0.678-11.64,1.347-17.482,2.008
				c8.141,2.437,16.273,4.872,24.393,7.31c5.915-0.494,11.817-0.994,17.704-1.504L3405.373,1486.911z M3427.681,1484.263
				c-5.855,0.708-11.727,1.404-17.611,2.094l24.963,7.928c5.958-0.52,11.903-1.05,17.834-1.585L3427.681,1484.263z
				 M3449.896,1481.532c-5.892,0.736-11.796,1.465-17.718,2.185c8.515,2.851,17.014,5.7,25.505,8.549
				c5.997-0.548,11.975-1.106,17.942-1.671C3467.059,1487.574,3458.485,1484.553,3449.896,1481.532z M3472.013,1478.713
				c-5.918,0.767-11.849,1.528-17.797,2.278c8.686,3.058,17.357,6.115,26.019,9.17c6.025-0.578,12.036-1.161,18.027-1.759
				C3489.525,1485.174,3480.776,1481.944,3472.013,1478.713z M3494.032,1475.802c-5.937,0.802-11.893,1.594-17.864,2.375
				c8.844,3.261,17.672,6.522,26.491,9.781c6.051-0.607,12.086-1.224,18.103-1.852
				C3511.864,1482.673,3502.954,1479.238,3494.032,1475.802z M3515.91,1472.785c-5.953,0.835-11.926,1.661-17.912,2.475
				c9.004,3.469,17.997,6.937,26.978,10.404c6.068-0.638,12.117-1.287,18.149-1.947
				C3534.066,1480.074,3524.994,1476.429,3515.91,1472.785z M3537.689,1469.667c-5.962,0.869-11.942,1.73-17.94,2.577
				c9.163,3.677,18.311,7.352,27.448,11.027c6.076-0.67,12.134-1.352,18.176-2.045
				C3556.157,1477.375,3546.93,1473.521,3537.689,1469.667z M3559.359,1466.445c-5.965,0.905-11.948,1.798-17.949,2.68
				c9.313,3.886,18.615,7.77,27.904,11.652c6.081-0.703,12.147-1.417,18.19-2.147
				C3578.133,1474.569,3568.754,1470.509,3559.359,1466.445z M3580.896,1463.106c-5.96,0.943-11.939,1.874-17.938,2.792
				c9.457,4.092,18.897,8.181,28.329,12.27c6.081-0.739,12.142-1.49,18.183-2.256
				C3599.957,1471.644,3590.434,1467.376,3580.896,1463.106z M3602.306,1459.644c-5.958,0.982-11.933,1.949-17.929,2.905
				c9.6,4.3,19.186,8.598,28.762,12.894c6.078-0.776,12.135-1.565,18.175-2.368
				C3621.656,1468.599,3611.99,1464.122,3602.306,1459.644z M3623.596,1456.063c-5.948,1.021-11.915,2.028-17.903,3.021
				c9.743,4.507,19.468,9.013,29.186,13.517c6.071-0.813,12.119-1.641,18.151-2.482
				C3643.23,1465.435,3633.422,1460.749,3623.596,1456.063z M3644.775,1452.358c-5.936,1.064-11.9,2.108-17.878,3.141
				c9.881,4.714,19.746,9.429,29.601,14.14c6.063-0.852,12.106-1.717,18.124-2.601
				C3664.684,1462.147,3654.737,1457.252,3644.775,1452.358z M3058.653,1516.917l-5.157,0.564h6.604l5.016-0.404L3058.653,1516.917z
				 M3081.788,1514.374l-8.556,0.945l6.594,0.163l3.825,0.095l8.528-0.694L3081.788,1514.374z M3104.872,1511.804l-10.822,1.208
				l13.082,0.641l10.82-0.897L3104.872,1511.804z M3127.874,1509.203l-12.39,1.404l15.077,1.098l12.436-1.051L3127.874,1509.203z
				 M3150.817,1506.571c-4.51,0.521-9.021,1.044-13.542,1.561l16.628,1.594c4.562-0.389,9.124-0.778,13.672-1.172L3150.817,1506.571
				z M3173.663,1503.908c-4.793,0.565-9.595,1.126-14.405,1.686l17.911,2.123c4.868-0.425,9.732-0.852,14.587-1.28
				L3173.663,1503.908z M3196.444,1501.199c-5.024,0.603-10.061,1.202-15.103,1.8l19.053,2.671
				c5.094-0.454,10.179-0.913,15.259-1.372L3196.444,1501.199z M3219.16,1498.444c-5.219,0.638-10.443,1.276-15.678,1.908
				l20.052,3.235c5.28-0.482,10.549-0.97,15.809-1.459L3219.16,1498.444z M3241.813,1495.64c-5.371,0.672-10.747,1.341-16.137,2.005
				l20.871,3.81c5.445-0.51,10.883-1.021,16.306-1.54L3241.813,1495.64z M3264.38,1492.784c-5.489,0.705-10.994,1.402-16.506,2.097
				l21.628,4.396c5.568-0.536,11.124-1.076,16.671-1.621C3278.9,1496.031,3271.672,1494.409,3264.38,1492.784z M3286.834,1489.869
				c-5.578,0.732-11.168,1.459-16.769,2.181c7.469,1.665,14.885,3.328,22.335,4.991c5.669-0.561,11.323-1.128,16.971-1.699
				C3301.854,1493.516,3294.372,1491.696,3286.834,1489.869z M3309.192,1486.895c-5.646,0.759-11.299,1.514-16.968,2.264
				c7.7,1.866,15.315,3.727,22.993,5.594c5.756-0.587,11.499-1.181,17.227-1.78
				C3324.709,1490.947,3316.945,1488.922,3309.192,1486.895z M3331.531,1483.851c-5.729,0.794-11.474,1.578-17.23,2.358l23.63,6.186
				c5.823-0.613,11.635-1.232,17.431-1.858L3331.531,1483.851z M3353.71,1480.735c-5.771,0.822-11.558,1.635-17.356,2.442
				l24.211,6.793c5.87-0.638,11.728-1.284,17.573-1.937L3353.71,1480.735z M3375.81,1477.546c-5.817,0.85-11.647,1.694-17.491,2.53
				l24.771,7.405c5.919-0.666,11.821-1.34,17.713-2.02L3375.81,1477.546z M3397.819,1474.28c-5.849,0.881-11.714,1.754-17.592,2.62
				c8.447,2.673,16.881,5.346,25.305,8.018c5.954-0.694,11.894-1.394,17.817-2.106
				C3414.849,1479.969,3406.339,1477.125,3397.819,1474.28z M3419.712,1470.926c-5.874,0.914-11.764,1.818-17.669,2.714
				c8.612,2.876,17.214,5.752,25.803,8.626c5.982-0.722,11.949-1.453,17.901-2.193
				C3437.08,1477.024,3428.401,1473.975,3419.712,1470.926z M3441.503,1467.48c-5.894,0.945-11.804,1.883-17.729,2.81
				c8.776,3.081,17.544,6.162,26.299,9.242c6.004-0.751,11.99-1.513,17.963-2.284
				C3459.203,1473.993,3450.358,1470.737,3441.503,1467.48z M3463.206,1463.947c-5.912,0.977-11.84,1.947-17.785,2.906
				c8.937,3.287,17.862,6.574,26.774,9.86c6.024-0.783,12.03-1.576,18.02-2.378
				C3481.225,1470.871,3472.221,1467.409,3463.206,1463.947z M3484.782,1460.311c-5.917,1.014-11.854,2.018-17.808,3.01
				c9.09,3.493,18.168,6.984,27.234,10.476c6.033-0.815,12.05-1.64,18.048-2.478
				C3503.11,1467.651,3493.953,1463.981,3484.782,1460.311z M3506.241,1456.57c-5.924,1.049-11.864,2.087-17.823,3.114
				c9.24,3.698,18.468,7.397,27.682,11.095c6.039-0.848,12.061-1.708,18.064-2.58
				C3524.868,1464.322,3515.562,1460.447,3506.241,1456.57z M3527.595,1452.725c-5.925,1.084-11.866,2.158-17.826,3.22
				c9.386,3.905,18.757,7.81,28.118,11.713c6.042-0.883,12.063-1.778,18.07-2.683
				C3546.514,1460.892,3537.061,1456.809,3527.595,1452.725z M3548.827,1448.766c-5.915,1.126-11.85,2.236-17.804,3.335
				c9.528,4.111,19.04,8.221,28.543,12.332c6.038-0.919,12.061-1.846,18.058-2.791
				C3568.036,1457.35,3558.438,1453.058,3548.827,1448.766z M3569.924,1444.685c-5.909,1.162-11.838,2.311-17.785,3.447
				c9.67,4.318,19.324,8.639,28.969,12.956c6.032-0.956,12.042-1.924,18.034-2.908
				C3589.413,1453.682,3579.676,1449.183,3569.924,1444.685z M3590.906,1440.485c-5.899,1.2-11.816,2.389-17.753,3.563
				c9.806,4.524,19.596,9.048,29.376,13.571c6.021-0.993,12.019-2.001,18-3.021
				C3610.665,1449.895,3600.794,1445.192,3590.906,1440.485z M3611.764,1436.157c-5.88,1.246-11.781,2.477-17.706,3.691
				c9.938,4.73,19.858,9.459,29.771,14.188c6.01-1.032,11.997-2.08,17.966-3.142
				C3631.795,1445.983,3621.787,1441.07,3611.764,1436.157z M3010.681,1519.444l-5.228,0.715l3.295-0.083l3.384-0.086l5.079-0.547
				L3010.681,1519.444z M3033.561,1516.296l-8.59,1.186l10.415-0.001l8.552-0.928L3033.561,1516.296z M3056.39,1513.127
				l-10.815,1.506l13.017,0.322l10.841-1.188L3056.39,1513.127z M3079.124,1509.937l-12.349,1.736l14.977,0.734l12.431-1.381
				L3079.124,1509.937z M3101.778,1506.719c-4.473,0.64-8.95,1.278-13.436,1.914l16.514,1.202l13.6-1.532L3101.778,1506.719z
				 M3124.4,1503.466c-4.767,0.691-9.544,1.38-14.329,2.066l17.817,1.699c4.829-0.549,9.655-1.1,14.471-1.654L3124.4,1503.466z
				 M3146.938,1500.174c-5.002,0.736-10.016,1.469-15.035,2.201l18.926,2.225c5.061-0.586,10.112-1.174,15.159-1.764
				L3146.938,1500.174z M3169.419,1496.839c-5.187,0.775-10.38,1.548-15.584,2.318l19.869,2.776
				c5.251-0.618,10.491-1.24,15.723-1.866C3182.753,1498.991,3176.108,1497.914,3169.419,1496.839z M3191.846,1493.459
				c-5.335,0.812-10.683,1.62-16.041,2.426c6.909,1.112,13.789,2.225,20.683,3.337c5.411-0.648,10.816-1.301,16.206-1.957
				C3205.733,1495.996,3198.826,1494.727,3191.846,1493.459z M3214.134,1490.034c-5.442,0.843-10.896,1.683-16.362,2.519
				c7.173,1.305,14.284,2.609,21.439,3.914c5.539-0.679,11.067-1.362,16.584-2.049L3214.134,1490.034z M3236.336,1486.557
				c-5.532,0.871-11.07,1.743-16.622,2.609c7.41,1.498,14.765,2.995,22.156,4.495c5.639-0.707,11.266-1.419,16.884-2.134
				C3251.308,1489.869,3243.801,1488.214,3236.336,1486.557z M3258.486,1483.023c-5.608,0.906-11.233,1.806-16.866,2.7
				c7.619,1.692,15.248,3.383,22.849,5.076c5.703-0.732,11.397-1.467,17.075-2.208
				C3273.875,1486.734,3266.171,1484.879,3258.486,1483.023z M3280.54,1479.42c-5.679,0.937-11.37,1.869-17.075,2.793
				c7.818,1.89,15.669,3.779,23.469,5.668c5.766-0.757,11.518-1.521,17.26-2.29C3296.32,1483.534,3288.433,1481.476,3280.54,1479.42
				z M3302.556,1475.746c-5.749,0.969-11.508,1.933-17.281,2.89c8.015,2.089,16.033,4.179,24.03,6.269
				c5.843-0.786,11.671-1.582,17.489-2.381C3318.725,1480.264,3310.646,1478.006,3302.556,1475.746z M3324.439,1472.012
				c-5.769,0.999-11.556,1.989-17.357,2.973c8.199,2.29,16.391,4.583,24.569,6.874c5.875-0.813,11.737-1.631,17.581-2.46
				C3340.978,1476.937,3332.715,1474.474,3324.439,1472.012z M3346.207,1468.196c-5.804,1.028-11.623,2.05-17.459,3.064
				c8.375,2.493,16.739,4.987,25.092,7.482c5.913-0.842,11.81-1.692,17.695-2.548
				C3363.104,1473.527,3354.659,1470.861,3346.207,1468.196z M3367.9,1464.305c-5.835,1.059-11.685,2.111-17.547,3.156
				c8.544,2.695,17.078,5.39,25.6,8.086c5.939-0.871,11.864-1.749,17.774-2.634C3385.126,1470.044,3376.52,1467.175,3367.9,1464.305
				z M3389.479,1460.329c-5.849,1.093-11.713,2.178-17.595,3.253c8.707,2.9,17.4,5.798,26.084,8.698
				c5.961-0.9,11.912-1.806,17.841-2.724C3407.042,1466.481,3398.267,1463.405,3389.479,1460.329z M3410.951,1456.263
				c-5.864,1.124-11.745,2.241-17.643,3.348c8.867,3.103,17.719,6.207,26.563,9.309c5.976-0.93,11.935-1.869,17.877-2.818
				C3428.828,1462.822,3419.895,1459.542,3410.951,1456.263z M3432.337,1452.107c-5.876,1.158-11.773,2.306-17.682,3.445
				c9.016,3.307,18.02,6.614,27.014,9.921c5.99-0.962,11.963-1.934,17.92-2.915
				C3450.518,1459.073,3441.433,1455.59,3432.337,1452.107z M3453.592,1447.847c-5.88,1.195-11.777,2.38-17.693,3.553
				c9.167,3.512,18.323,7.024,27.467,10.537c5.999-0.996,11.985-1.998,17.947-3.014
				C3472.084,1455.232,3462.844,1451.539,3453.592,1447.847z M3474.742,1443.485c-5.881,1.23-11.781,2.45-17.698,3.657
				c9.315,3.719,18.617,7.437,27.908,11.156c5.999-1.029,11.977-2.069,17.939-3.12
				C3493.519,1451.281,3484.138,1447.382,3474.742,1443.485z M3495.789,1439.022c-5.876,1.267-11.776,2.521-17.691,3.764
				c9.452,3.922,18.891,7.844,28.32,11.766c5.997-1.063,11.974-2.138,17.935-3.224
				C3514.843,1447.226,3505.323,1443.124,3495.789,1439.022z M3516.692,1434.438c-5.869,1.304-11.753,2.598-17.66,3.877
				c9.596,4.129,19.179,8.259,28.751,12.388c5.989-1.098,11.966-2.208,17.917-3.331
				C3536.041,1443.062,3526.374,1438.748,3516.692,1434.438z M3537.491,1429.742c-5.86,1.343-11.738,2.674-17.636,3.991
				c9.735,4.335,19.452,8.67,29.162,13.006c5.98-1.137,11.939-2.287,17.878-3.451
				C3557.104,1438.773,3547.305,1434.258,3537.491,1429.742z M3558.156,1424.922c-5.838,1.386-11.695,2.759-17.578,4.115
				c9.862,4.539,19.707,9.076,29.546,13.615c5.967-1.175,11.913-2.363,17.84-3.566
				C3578.039,1434.365,3568.106,1429.643,3558.156,1424.922z M3578.695,1419.972c-5.828,1.425-11.674,2.838-17.543,4.235
				c10.002,4.747,19.986,9.493,29.963,14.242c5.954-1.215,11.892-2.439,17.803-3.684
				C3598.855,1429.833,3588.783,1424.903,3578.695,1419.972z M2963.262,1523.198l-5.321,0.878l6.637-0.343l5.194-0.702
				L2963.262,1523.198z M2985.881,1519.445l-8.624,1.434l10.327-0.263l8.594-1.171L2985.881,1519.445z M3008.415,1515.681
				l-10.768,1.804l12.889-0.001l10.854-1.489L3008.415,1515.681z M3030.879,1511.897l-12.256,2.069l14.819,0.367l12.392-1.717
				L3030.879,1511.897z M3053.293,1508.083l-13.392,2.284l16.397,0.792l13.505-1.891L3053.293,1508.083z M3075.667,1504.24
				c-4.748,0.821-9.506,1.639-14.268,2.457l17.663,1.268c4.801-0.677,9.597-1.357,14.383-2.038L3075.667,1504.24z
				 M3097.974,1500.358c-4.978,0.871-9.964,1.741-14.957,2.606l18.728,1.779c5.039-0.721,10.064-1.442,15.088-2.167
				C3110.541,1501.836,3104.28,1501.095,3097.974,1500.358z M3120.207,1496.442c-5.155,0.914-10.318,1.826-15.491,2.735
				l19.654,2.311c5.225-0.757,10.443-1.518,15.65-2.281C3133.405,1498.286,3126.838,1497.363,3120.207,1496.442z M3142.327,1492.492
				c-5.278,0.95-10.566,1.897-15.863,2.84c6.851,0.951,13.639,1.908,20.472,2.86c5.377-0.791,10.746-1.586,16.103-2.383
				C3156.146,1494.702,3149.235,1493.598,3142.327,1492.492z M3164.381,1488.493c-5.397,0.985-10.803,1.968-16.219,2.947
				l21.262,3.415c5.497-0.822,10.981-1.648,16.459-2.478C3178.739,1491.08,3171.543,1489.789,3164.381,1488.493z M3186.383,1484.445
				c-5.496,1.022-11.008,2.036-16.528,3.05c7.33,1.327,14.694,2.649,22.006,3.979c5.58-0.85,11.152-1.703,16.708-2.561
				C3201.188,1487.422,3193.782,1485.934,3186.383,1484.445z M3208.284,1480.34c-5.579,1.054-11.168,2.103-16.77,3.147
				c7.546,1.521,15.111,3.038,22.64,4.559c5.663-0.878,11.313-1.76,16.95-2.648
				C3223.502,1483.711,3215.904,1482.024,3208.284,1480.34z M3230.133,1476.176c-5.644,1.086-11.301,2.166-16.969,3.24l23.223,5.148
				c5.731-0.906,11.448-1.818,17.157-2.734C3245.735,1479.945,3237.96,1478.06,3230.133,1476.176z M3251.894,1471.947
				c-5.697,1.118-11.406,2.23-17.131,3.336c7.949,1.914,15.859,3.829,23.789,5.745c5.79-0.936,11.566-1.877,17.327-2.823
				C3267.872,1476.119,3259.922,1474.031,3251.894,1471.947z M3273.543,1467.656c-5.732,1.147-11.477,2.289-17.236,3.422
				c8.132,2.113,16.196,4.229,24.308,6.343c5.847-0.966,11.68-1.938,17.5-2.916
				C3289.935,1472.221,3281.744,1469.938,3273.543,1467.656z M3295.1,1463.299c-5.759,1.178-11.532,2.349-17.32,3.513
				c8.298,2.311,16.586,4.621,24.862,6.933c5.867-0.991,11.719-1.988,17.559-2.993
				C3311.844,1468.266,3303.477,1465.783,3295.1,1463.299z M3316.559,1458.861c-5.789,1.21-11.591,2.411-17.408,3.606
				c8.47,2.511,16.934,5.026,25.384,7.539c5.895-1.02,11.773-2.048,17.635-3.083
				C3333.643,1464.234,3325.107,1461.548,3316.559,1458.861z M3337.933,1454.35c-5.807,1.241-11.633,2.472-17.471,3.696
				c8.629,2.714,17.246,5.428,25.852,8.141c5.918-1.049,11.82-2.106,17.707-3.172
				C3355.336,1460.126,3346.639,1457.237,3337.933,1454.35z M3359.188,1449.748c-5.821,1.274-11.656,2.538-17.511,3.796
				c8.789,2.915,17.571,5.832,26.338,8.75c5.933-1.08,11.852-2.165,17.753-3.262
				C3376.919,1455.935,3368.06,1452.842,3359.188,1449.748z M3380.354,1445.063c-5.83,1.307-11.677,2.602-17.539,3.891
				c8.942,3.119,17.869,6.239,26.789,9.36c5.942-1.11,11.865-2.23,17.773-3.361
				C3398.38,1451.655,3389.373,1448.358,3380.354,1445.063z M3401.409,1440.279c-5.832,1.343-11.682,2.677-17.552,3.998
				c9.087,3.322,18.163,6.643,27.226,9.966c5.952-1.143,11.887-2.296,17.805-3.457
				C3419.74,1447.282,3410.581,1443.78,3401.409,1440.279z M3422.356,1435.403c-5.84,1.377-11.695,2.741-17.568,4.098
				c9.238,3.527,18.463,7.056,27.677,10.585c5.955-1.177,11.895-2.364,17.812-3.561
				C3440.981,1442.817,3431.675,1439.11,3422.356,1435.403z M3443.193,1430.423c-5.83,1.414-11.677,2.818-17.546,4.208
				c9.372,3.73,18.733,7.459,28.084,11.19c5.952-1.209,11.885-2.432,17.802-3.666
				C3462.097,1438.243,3452.651,1434.333,3443.193,1430.423z M3463.914,1425.332c-5.828,1.449-11.673,2.888-17.538,4.314
				c9.516,3.935,19.02,7.873,28.513,11.81c5.948-1.245,11.879-2.501,17.791-3.77
				C3483.102,1433.567,3473.514,1429.449,3463.914,1425.332z M3484.521,1420.135c-5.815,1.49-11.651,2.964-17.505,4.428
				c9.653,4.141,19.293,8.281,28.923,12.425c5.938-1.281,11.854-2.578,17.75-3.886
				C3503.978,1428.779,3494.257,1424.456,3484.521,1420.135z M3504.996,1414.815c-5.803,1.527-11.623,3.042-17.466,4.544
				c9.787,4.346,19.559,8.692,29.322,13.039c5.926-1.32,11.833-2.652,17.72-3.996
				C3524.725,1423.872,3514.869,1419.343,3504.996,1414.815z M3525.364,1409.381c-5.786,1.569-11.598,3.12-17.424,4.66
				c9.92,4.55,19.824,9.103,29.721,13.656c5.911-1.357,11.805-2.727,17.675-4.112
				C3545.355,1418.85,3535.368,1414.115,3525.364,1409.381z M3545.585,1403.81c-5.767,1.609-11.552,3.209-17.361,4.79
				c10.05,4.756,20.083,9.513,30.11,14.271c5.894-1.398,11.763-2.813,17.615-4.24
				C3565.837,1413.69,3555.72,1408.748,3545.585,1403.81z M2916.382,1528.184l-5.385,1.046l6.661-0.522l5.261-0.861
				L2916.382,1528.184z M2938.705,1523.833l-8.597,1.679l10.281-0.531l8.635-1.42L2938.705,1523.833z M2960.966,1519.468
				l-10.685,2.1l12.806-0.329l10.787-1.785L2960.966,1519.468z M2983.189,1515.081l-12.221,2.416l14.76-0.011l12.304-2.052
				L2983.189,1515.081z M3005.362,1510.671l-13.346,2.66l16.271,0.386l13.437-2.259L3005.362,1510.671z M3027.485,1506.231
				c-4.728,0.953-9.465,1.906-14.208,2.855l17.499,0.841c4.783-0.809,9.562-1.619,14.329-2.431
				C3039.225,1507.076,3033.379,1506.651,3027.485,1506.231z M3049.519,1501.767c-4.942,1.006-9.889,2.009-14.845,3.011
				c6.197,0.443,12.358,0.889,18.543,1.332l15.013-2.575C3061.987,1502.945,3055.774,1502.354,3049.519,1501.767z
				 M3071.467,1497.272c-5.095,1.049-10.199,2.096-15.311,3.142c6.512,0.612,12.963,1.233,19.46,1.847
				c5.199-0.898,10.388-1.797,15.567-2.702C3084.628,1498.794,3078.037,1498.037,3071.467,1497.272z M3093.342,1492.741
				c-5.243,1.091-10.491,2.181-15.751,3.268l20.336,2.37c5.33-0.933,10.649-1.869,15.962-2.807
				C3107.057,1494.625,3100.188,1493.685,3093.342,1492.741z M3115.174,1488.162c-5.357,1.133-10.725,2.261-16.104,3.386
				c7.033,0.97,14.101,1.936,21.117,2.91c5.434-0.965,10.859-1.931,16.273-2.901L3115.174,1488.162z M3136.935,1483.535
				c-5.463,1.168-10.934,2.333-16.417,3.495c7.267,1.158,14.543,2.316,21.793,3.476c5.541-0.998,11.072-1.999,16.591-3.003
				C3151.581,1486.18,3144.272,1484.855,3136.935,1483.535z M3158.636,1478.857c-5.542,1.205-11.096,2.405-16.663,3.601
				c7.479,1.346,14.939,2.696,22.402,4.047c5.628-1.03,11.245-2.061,16.853-3.098
				C3173.69,1481.891,3166.192,1480.371,3158.636,1478.857z M3180.21,1474.132c-5.598,1.234-11.205,2.465-16.827,3.69
				c7.69,1.541,15.33,3.088,23.002,4.631c5.696-1.058,11.377-2.121,17.049-3.189
				C3195.689,1477.553,3187.973,1475.841,3180.21,1474.132z M3201.694,1469.356c-5.627,1.262-11.269,2.519-16.923,3.771
				c7.878,1.735,15.685,3.476,23.542,5.215c5.752-1.087,11.489-2.18,17.216-3.277
				C3217.599,1473.158,3209.641,1471.259,3201.694,1469.356z M3223.094,1464.511c-5.677,1.295-11.366,2.585-17.067,3.868
				c8.06,1.932,16.108,3.861,24.149,5.796c5.79-1.115,11.571-2.234,17.333-3.361
				C3239.396,1468.709,3231.227,1466.614,3223.094,1464.511z M3244.483,1459.588c-5.732,1.333-11.479,2.658-17.239,3.976
				c8.225,2.127,16.496,4.248,24.702,6.379c5.821-1.143,11.629-2.292,17.422-3.448
				C3261.083,1464.189,3252.787,1461.889,3244.483,1459.588z M3265.713,1454.604c-5.742,1.359-11.496,2.713-17.265,4.058
				c8.396,2.328,16.782,4.658,25.157,6.988c5.85-1.171,11.687-2.348,17.508-3.533
				C3282.657,1459.61,3274.189,1457.107,3265.713,1454.604z M3286.861,1449.548c-5.758,1.393-11.534,2.775-17.324,4.151
				c8.555,2.528,17.101,5.056,25.635,7.587c5.871-1.201,11.725-2.408,17.565-3.626
				C3304.124,1454.955,3295.497,1452.251,3286.861,1449.548z M3307.906,1444.407c-5.776,1.425-11.565,2.84-17.372,4.248
				c8.713,2.729,17.418,5.459,26.109,8.19c5.886-1.23,11.757-2.468,17.613-3.715
				C3325.483,1450.222,3316.7,1447.313,3307.906,1444.407z M3328.854,1439.189c-5.783,1.458-11.581,2.906-17.397,4.345
				c8.866,2.931,17.721,5.863,26.565,8.796c5.897-1.261,11.776-2.532,17.638-3.812
				C3346.735,1445.407,3337.799,1442.298,3328.854,1439.189z M3349.699,1433.879c-5.79,1.49-11.595,2.97-17.417,4.443
				c9.013,3.132,18.018,6.266,27.008,9.401c5.903-1.292,11.789-2.594,17.66-3.905
				C3367.876,1440.503,3358.795,1437.19,3349.699,1433.879z M3370.442,1428.477c-5.788,1.526-11.592,3.042-17.416,4.547
				c9.159,3.336,18.302,6.674,27.438,10.012c5.908-1.326,11.799-2.661,17.669-4.007
				C3388.914,1435.509,3379.684,1431.994,3370.442,1428.477z M3391.07,1422.979c-5.79,1.56-11.597,3.111-17.42,4.651
				c9.299,3.539,18.587,7.078,27.863,10.62c5.908-1.36,11.796-2.729,17.669-4.109
				C3409.822,1430.418,3400.452,1426.697,3391.07,1422.979z M3411.59,1417.377c-5.779,1.599-11.575,3.186-17.394,4.761
				c9.437,3.741,18.861,7.485,28.276,11.229c5.903-1.394,11.794-2.795,17.66-4.211
				C3430.63,1425.229,3421.115,1421.302,3411.59,1417.377z M3432,1411.67c-5.774,1.635-11.569,3.256-17.378,4.867
				c9.576,3.948,19.139,7.894,28.692,11.844c5.895-1.429,11.768-2.869,17.625-4.323
				C3451.303,1419.927,3441.659,1415.798,3432,1411.67z M3452.287,1405.85c-5.756,1.674-11.531,3.337-17.329,4.985
				c9.706,4.15,19.4,8.301,29.084,12.453c5.883-1.466,11.751-2.942,17.596-4.431
				C3471.865,1414.519,3462.083,1410.183,3452.287,1405.85z M3472.463,1399.916c-5.746,1.713-11.515,3.409-17.299,5.096
				c9.844,4.355,19.672,8.714,29.491,13.073c5.869-1.503,11.715-3.021,17.543-4.552
				C3492.297,1408.992,3482.386,1404.453,3472.463,1399.916z M3492.502,1393.857c-5.723,1.755-11.465,3.496-17.23,5.221
				c9.968,4.558,19.923,9.12,29.868,13.682c5.851-1.544,11.685-3.098,17.498-4.666
				C3512.603,1403.346,3502.561,1398.6,3492.502,1393.857z M3512.435,1387.678c-5.706,1.795-11.442,3.572-17.189,5.339
				c10.102,4.765,20.186,9.533,30.266,14.301c5.833-1.582,11.64-3.182,17.428-4.795
				C3532.781,1397.573,3522.617,1392.624,3512.435,1387.678z M2847.911,1539.364l-0.079,0.017l0.328-0.044L2847.911,1539.364z
				 M2870,1534.418l-5.417,1.215l6.64-0.702l5.372-1.037L2870,1534.418z M2892.06,1529.46l-8.542,1.922l10.224-0.8l8.577-1.661
				L2892.06,1529.46z M2914.08,1524.486l-10.655,2.411l12.75-0.667l10.702-2.083L2914.08,1524.486z M2936.052,1519.495
				l-12.183,2.771l14.637-0.388l12.255-2.399L2936.052,1519.495z M2957.989,1514.482l-13.296,3.044l16.098-0.018l13.397-2.641
				C2968.78,1514.74,2963.408,1514.608,2957.989,1514.482z M2979.811,1509.457l-14.093,3.249l17.321,0.411l14.266-2.832
				L2979.811,1509.457z M3001.563,1504.408c-4.882,1.139-9.773,2.276-14.673,3.411c6.141,0.29,12.219,0.589,18.344,0.882
				c4.987-0.996,9.967-1.996,14.939-2.994C3013.991,1505.269,3007.758,1504.844,3001.563,1504.408z M3023.261,1499.325
				c-5.063,1.19-10.133,2.38-15.213,3.568l19.335,1.363c5.142-1.036,10.277-2.075,15.401-3.116
				C3036.291,1500.532,3029.768,1499.931,3023.261,1499.325z M3044.918,1494.202c-5.206,1.238-10.423,2.475-15.648,3.708
				c6.719,0.627,13.468,1.247,20.171,1.877c5.278-1.075,10.547-2.154,15.807-3.233L3044.918,1494.202z M3066.506,1489.041
				c-5.327,1.281-10.664,2.557-16.01,3.832c6.969,0.804,13.941,1.609,20.895,2.417c5.402-1.113,10.794-2.227,16.176-3.346
				C3080.545,1490.977,3073.543,1490.007,3066.506,1489.041z M3088.035,1483.834c-5.422,1.319-10.853,2.635-16.294,3.948
				c7.198,0.987,14.372,1.979,21.553,2.97c5.504-1.148,10.996-2.298,16.479-3.451
				C3102.516,1486.147,3095.307,1484.986,3088.035,1483.834z M3109.443,1478.596c-5.482,1.352-10.979,2.697-16.484,4.04
				c7.415,1.175,14.776,2.358,22.174,3.536c5.589-1.18,11.165-2.366,16.73-3.553
				C3124.395,1481.276,3116.93,1479.936,3109.443,1478.596z M3130.766,1473.305c-5.538,1.382-11.087,2.761-16.649,4.135
				c7.616,1.363,15.188,2.733,22.785,4.102c5.66-1.213,11.309-2.428,16.946-3.648
				C3146.178,1476.359,3138.455,1474.836,3130.766,1473.305z M3152.019,1467.961c-5.59,1.418-11.193,2.829-16.81,4.237
				c7.802,1.555,15.618,3.105,23.401,4.663c5.694-1.236,11.374-2.48,17.042-3.728
				C3167.794,1471.404,3159.896,1469.686,3152.019,1467.961z M3173.207,1462.554c-5.636,1.45-11.288,2.891-16.95,4.329
				c7.981,1.75,15.994,3.492,23.957,5.246c5.728-1.264,11.445-2.533,17.147-3.809
				C3189.321,1466.396,3181.266,1464.476,3173.207,1462.554z M3194.318,1457.08c-5.673,1.482-11.358,2.96-17.059,4.431
				c8.154,1.945,16.313,3.889,24.448,5.838c5.77-1.295,11.523-2.595,17.262-3.902
				C3210.754,1461.324,3202.551,1459.199,3194.318,1457.08z M3215.373,1451.538c-5.708,1.517-11.435,3.024-17.172,4.527
				c8.32,2.143,16.617,4.287,24.917,6.434c5.821-1.33,11.629-2.665,17.422-4.006
				C3232.163,1456.173,3223.77,1453.855,3215.373,1451.538z M3236.285,1445.932c-5.713,1.544-11.44,3.082-17.183,4.611
				c8.482,2.341,16.954,4.683,25.415,7.028c5.822-1.354,11.629-2.715,17.42-4.083
				C3253.395,1450.968,3244.846,1448.448,3236.285,1445.932z M3257.111,1440.252c-5.725,1.577-11.465,3.146-17.222,4.707
				c8.635,2.54,17.256,5.083,25.87,7.626c5.839-1.385,11.668-2.775,17.477-4.172
				C3274.536,1445.691,3265.832,1442.97,3257.111,1440.252z M3277.841,1434.496c-5.737,1.609-11.492,3.207-17.26,4.799
				c8.79,2.741,17.565,5.484,26.335,8.229c5.849-1.414,11.683-2.838,17.501-4.269
				C3295.57,1440.332,3286.709,1437.414,3277.841,1434.496z M3298.463,1428.652c-5.74,1.643-11.493,3.275-17.265,4.9
				c8.935,2.941,17.858,5.884,26.772,8.829c5.855-1.445,11.7-2.897,17.523-4.359
				C3316.493,1434.896,3307.484,1431.773,3298.463,1428.652z M3318.994,1422.725c-5.741,1.677-11.499,3.341-17.275,4.998
				c9.08,3.143,18.148,6.286,27.206,9.434c5.86-1.477,11.7-2.963,17.525-4.459
				C3337.309,1429.37,3328.156,1426.047,3318.994,1422.725z M3339.425,1416.699c-5.742,1.71-11.502,3.411-17.278,5.101
				c9.221,3.346,18.434,6.694,27.634,10.042c5.858-1.51,11.706-3.027,17.53-4.558
				C3358.025,1423.754,3348.733,1420.225,3339.425,1416.699z M3359.733,1410.58c-5.733,1.747-11.481,3.487-17.252,5.21
				c9.357,3.547,18.702,7.095,28.038,10.646c5.855-1.543,11.692-3.098,17.512-4.663
				C3378.609,1418.041,3369.177,1414.309,3359.733,1410.58z M3379.944,1404.363c-5.726,1.783-11.477,3.551-17.24,5.312
				c9.495,3.751,18.979,7.504,28.453,11.259c5.849-1.578,11.683-3.165,17.494-4.767
				C3399.093,1412.23,3389.525,1408.296,3379.944,1404.363z M3400.033,1398.033c-5.716,1.82-11.449,3.629-17.202,5.425
				c9.629,3.954,19.245,7.91,28.853,11.869c5.838-1.614,11.657-3.24,17.458-4.878
				C3419.449,1406.309,3409.747,1402.17,3400.033,1398.033z M3420.007,1391.596c-5.699,1.858-11.413,3.708-17.151,5.541
				c9.76,4.157,19.507,8.317,29.246,12.478c5.824-1.65,11.629-3.313,17.414-4.989
				C3439.69,1400.281,3429.855,1395.937,3420.007,1391.596z M3439.875,1385.045c-5.684,1.898-11.394,3.779-17.118,5.652
				c9.891,4.361,19.768,8.725,29.637,13.091c5.809-1.689,11.599-3.391,17.369-5.105
				C3459.811,1394.134,3449.85,1389.588,3439.875,1385.045z M3459.602,1378.367c-5.663,1.939-11.343,3.866-17.047,5.776
				c10.021,4.566,20.025,9.136,30.025,13.705c5.79-1.727,11.554-3.47,17.301-5.225
				C3479.797,1387.869,3469.708,1383.116,3459.602,1378.367z M3479.212,1371.568c-5.642,1.982-11.302,3.949-16.985,5.902
				c10.143,4.769,20.275,9.539,30.397,14.313c5.769-1.77,11.521-3.55,17.252-5.346
				C3499.665,1381.478,3489.445,1376.521,3479.212,1371.568z M4054.721,1646.814l-27.046-13.844
				c-6.206-0.737-12.423-1.482-18.663-2.247l26.85,13.355C4042.169,1645.006,4048.449,1645.913,4054.721,1646.814z
				 M4086.669,1663.162l-26.576-13.6c-6.179-0.88-12.374-1.77-18.588-2.679l26.368,13.11
				C4074.156,1661.063,4080.423,1662.122,4086.669,1663.162z M4118.452,1679.415l-26.034-13.313
				c-6.143-1.017-12.316-2.057-18.496-3.104l25.844,12.841C4106.01,1677.044,4112.244,1678.24,4118.452,1679.415z M4150.05,1695.564
				l-25.449-13.003c-6.078-1.142-12.169-2.297-18.279-3.466l25.273,12.545C4137.766,1692.962,4143.912,1694.267,4150.05,1695.564z
				 M4181.522,1711.631l-24.802-12.661c-5.993-1.257-11.988-2.518-18.009-3.801l24.611,12.198
				C4169.405,1708.802,4175.47,1710.223,4181.522,1711.631z M4212.771,1727.568c-7.987-4.069-16.007-8.163-24.023-12.252
				c-5.897-1.364-11.822-2.753-17.752-4.146c7.994,3.959,15.95,7.893,23.914,11.832
				C4200.877,1724.535,4206.835,1726.061,4212.771,1727.568z M4243.778,1743.354l-23.174-11.798
				c-5.733-1.446-11.47-2.897-17.227-4.364c7.712,3.813,15.4,7.608,23.086,11.403
				C4232.253,1740.196,4238.012,1741.771,4243.778,1743.354z M4274.646,1759.039c-7.402-3.759-14.802-7.516-22.23-11.292
				c-5.552-1.514-11.128-3.05-16.708-4.589l22.067,10.878C4263.407,1755.71,4269.044,1757.39,4274.646,1759.039z M4305.056,1774.462
				c-6.999-3.547-13.989-7.086-21.014-10.651c-5.289-1.548-10.586-3.103-15.897-4.671c6.979,3.434,13.959,6.872,20.915,10.289
				C4294.404,1771.118,4299.73,1772.79,4305.056,1774.462z M4335.22,1789.728c-6.523-3.298-13.055-6.6-19.599-9.913
				c-4.977-1.555-9.964-3.12-14.96-4.692c6.492,3.186,12.997,6.383,19.467,9.552
				C4325.166,1786.366,4330.202,1788.056,4335.22,1789.728z M4364.855,1804.692c-5.92-2.985-11.871-5.993-17.808-8.991
				c-4.545-1.506-9.096-3.017-13.654-4.536c5.957,2.915,11.912,5.829,17.85,8.729
				C4355.789,1801.502,4360.322,1803.097,4364.855,1804.692z M4393.959,1819.34c-5.197-2.611-10.415-5.24-15.626-7.864
				c-3.983-1.395-7.976-2.798-11.972-4.205c5.251,2.561,10.487,5.109,15.725,7.658
				C4386.048,1816.404,4390.009,1817.877,4393.959,1819.34z M4422.245,1833.534l-12.745-6.39c-3.16-1.165-6.308-2.317-9.476-3.488
				l12.901,6.256L4422.245,1833.534z M4449.186,1847.015l-8.677-4.331l-6.115-2.369l9.02,4.351L4449.186,1847.015z
				 M4474.122,1859.463l-2.771-1.383l-0.714-0.288l3.448,1.654L4474.122,1859.463z M3529.731,1380.116
				c-10.331-5.161-20.675-10.319-31.028-15.475c-5.622,2.024-11.27,4.031-16.935,6.026c10.274,4.974,20.539,9.951,30.79,14.93
				C3518.306,1383.788,3524.025,1381.957,3529.731,1380.116z M3563.12,1396.825c-10.291-5.158-20.586-10.315-30.899-15.467
				c-5.685,1.839-11.388,3.666-17.117,5.475c10.225,4.967,20.431,9.939,30.635,14.91
				C3551.551,1400.117,3557.348,1398.48,3563.12,1396.825z M3596.446,1413.552c-10.239-5.146-20.482-10.292-30.744-15.435
				c-5.75,1.654-11.527,3.29-17.321,4.913c10.178,4.962,20.339,9.922,30.493,14.886
				C3584.752,1416.476,3590.612,1415.023,3596.446,1413.552z M3629.714,1430.296c-10.186-5.134-20.38-10.267-30.591-15.4
				c-5.809,1.47-11.646,2.922-17.502,4.36c10.131,4.952,20.245,9.906,30.351,14.858
				C3617.908,1432.858,3623.82,1431.584,3629.714,1430.296z M3662.921,1447.051c-10.136-5.121-20.282-10.242-30.443-15.362
				c-5.868,1.287-11.758,2.558-17.667,3.818c10.078,4.941,20.14,9.88,30.192,14.818
				C3651,1449.25,3656.969,1448.158,3662.921,1447.051z M3696.053,1463.81c-10.073-5.1-20.159-10.203-30.259-15.306
				c-5.923,1.106-11.868,2.198-17.832,3.274c10.016,4.923,20.016,9.844,30.006,14.763
				C3684.018,1465.647,3690.046,1464.736,3696.053,1463.81z M3729.112,1480.568c-10.008-5.079-20.031-10.159-30.066-15.241
				c-5.976,0.925-11.974,1.837-17.991,2.733c9.952,4.902,19.89,9.802,29.816,14.699
				C3716.971,1482.044,3723.052,1481.314,3729.112,1480.568z M3762.119,1497.331c-9.944-5.055-19.907-10.113-29.878-15.174
				c-6.026,0.748-12.072,1.48-18.14,2.197c9.892,4.883,19.771,9.761,29.635,14.638
				C3749.885,1498.454,3756.011,1497.9,3762.119,1497.331z M3795.006,1514.062c-9.86-5.02-19.741-10.046-29.628-15.073
				c-6.072,0.572-12.166,1.126-18.279,1.667c9.81,4.851,19.605,9.697,29.386,14.541
				C3782.679,1514.835,3788.853,1514.456,3795.006,1514.062z M3827.822,1530.788c-9.783-4.989-19.575-9.982-29.387-14.979
				c-6.112,0.397-12.243,0.781-18.397,1.146l29.149,14.445C3815.418,1531.211,3821.631,1531.008,3827.822,1530.788z
				 M3860.558,1547.492c-9.703-4.954-19.409-9.909-29.142-14.872c-6.148,0.225-12.317,0.435-18.504,0.629l28.908,14.342
				C3848.086,1547.572,3854.333,1547.542,3860.558,1547.492z M3893.199,1564.166l-28.865-14.747
				c-6.177,0.055-12.376,0.094-18.593,0.118l28.629,14.219C3880.663,1563.907,3886.945,1564.047,3893.199,1564.166z
				 M3925.735,1580.801l-28.563-14.604c-6.2-0.111-12.423-0.241-18.664-0.383l28.33,14.081
				C3913.155,1580.212,3919.459,1580.517,3925.735,1580.801z M3958.154,1597.386l-28.229-14.442
				c-6.215-0.274-12.456-0.567-18.711-0.873l28.001,13.926C3945.545,1596.475,3951.863,1596.94,3958.154,1597.386z
				 M3990.463,1613.92l-27.865-14.261c-6.223-0.433-12.468-0.883-18.729-1.348l27.641,13.752
				C3977.846,1612.697,3984.166,1613.318,3990.463,1613.92z M4015.538,1626.757l-20.359-10.422
				c-6.222-0.587-12.459-1.189-18.718-1.807l3.428,1.705l23.835,11.858c6.327,0.784,12.637,1.552,18.928,2.308L4015.538,1626.757z
				 M2802.362,1547.449l-0.207,0.052l0.888-0.144L2802.362,1547.449z M2824.188,1541.89l-5.384,1.374l6.627-0.886l5.332-1.189
				L2824.188,1541.89z M2845.981,1536.323l-8.543,2.185l10.181-1.081l8.536-1.91L2845.981,1536.323z M2867.76,1530.737
				l-10.644,2.733l12.646-1.004l10.671-2.396L2867.76,1530.737z M2889.484,1525.139l-12.131,3.129l14.477-0.761l12.215-2.754
				C2899.184,1524.884,2894.354,1525.006,2889.484,1525.139z M2911.103,1519.537l-13.171,3.417l15.93-0.422l13.338-3.027
				L2911.103,1519.537z M2932.657,1513.919c-4.634,1.212-9.276,2.424-13.924,3.635c5.729-0.011,11.403-0.011,17.12-0.019
				l14.18-3.237C2944.259,1514.166,2938.442,1514.047,2932.657,1513.919z M2954.163,1508.273c-4.857,1.28-9.724,2.558-14.597,3.835
				c6.083,0.137,12.174,0.27,18.244,0.409c4.929-1.131,9.854-2.261,14.767-3.395
				C2966.452,1508.836,2960.302,1508.557,2954.163,1508.273z M2975.622,1502.596c-5.033,1.337-10.073,2.672-15.123,4.006
				c6.382,0.295,12.79,0.583,19.159,0.883c5.098-1.179,10.187-2.358,15.269-3.541L2975.622,1502.596z M2997.035,1496.885
				c-5.172,1.387-10.354,2.77-15.545,4.153c6.654,0.463,13.305,0.924,19.944,1.391c5.245-1.222,10.481-2.448,15.708-3.675
				C3010.437,1498.132,3003.754,1497.504,2997.035,1496.885z M3018.387,1491.137c-5.286,1.431-10.586,2.857-15.891,4.281
				c6.901,0.638,13.773,1.281,20.659,1.922c5.368-1.263,10.727-2.529,16.076-3.797
				C3032.274,1492.743,3025.357,1491.935,3018.387,1491.137z M3039.591,1485.371c-5.354,1.462-10.716,2.923-16.091,4.38
				c7.129,0.817,14.203,1.645,21.316,2.466c5.467-1.3,10.921-2.603,16.366-3.908
				C3053.997,1487.326,3046.793,1486.349,3039.591,1485.371z M3060.752,1479.554c-5.426,1.5-10.858,2.996-16.305,4.489
				c7.341,1,14.66,2.001,21.985,3.005c5.542-1.332,11.073-2.666,16.59-4.004C3075.622,1481.874,3068.168,1480.719,3060.752,1479.554
				z M3081.859,1473.69c-5.496,1.537-11.007,3.068-16.527,4.598c7.539,1.187,15.113,2.361,22.636,3.551
				c5.587-1.36,11.159-2.722,16.724-4.088C3097.096,1476.393,3089.471,1475.043,3081.859,1473.69z M3102.899,1467.77
				c-5.556,1.572-11.124,3.14-16.703,4.703c7.728,1.376,15.479,2.745,23.189,4.126c5.643-1.391,11.271-2.787,16.887-4.186
				C3118.487,1470.864,3110.7,1469.315,3102.899,1467.77z M3123.855,1461.795c-5.597,1.606-11.206,3.208-16.828,4.804
				c7.904,1.567,15.802,3.135,23.687,4.706c5.692-1.422,11.375-2.846,17.04-4.278
				C3139.785,1465.282,3131.841,1463.534,3123.855,1461.795z M3144.746,1455.76c-5.631,1.638-11.271,3.272-16.929,4.9
				c8.077,1.761,16.12,3.527,24.179,5.292c5.727-1.451,11.439-2.906,17.14-4.369
				C3160.997,1459.643,3152.904,1457.694,3144.746,1455.76z M3165.492,1449.681c-5.635,1.664-11.287,3.321-16.951,4.973
				c8.246,1.956,16.431,3.925,24.657,5.887c5.76-1.482,11.505-2.97,17.236-4.463
				C3182.128,1453.943,3173.817,1451.811,3165.492,1449.681z M3186.213,1443.515c-5.672,1.699-11.359,3.393-17.06,5.081
				c8.404,2.153,16.777,4.309,25.163,6.468c5.787-1.513,11.562-3.03,17.321-4.556
				C3203.174,1448.173,3194.697,1445.843,3186.213,1443.515z M3206.809,1437.288c-5.677,1.729-11.366,3.453-17.073,5.169
				c8.557,2.35,17.106,4.702,25.643,7.058c5.79-1.538,11.56-3.084,17.317-4.637
				C3224.077,1442.345,3215.448,1439.816,3206.809,1437.288z M3227.313,1430.989c-5.686,1.761-11.386,3.517-17.102,5.265
				c8.706,2.549,17.406,5.098,26.093,7.651c5.8-1.568,11.589-3.143,17.358-4.726
				C3244.89,1436.446,3236.106,1433.717,3227.313,1430.989z M3247.729,1424.61c-5.694,1.794-11.406,3.579-17.129,5.358
				c8.856,2.749,17.705,5.499,26.54,8.252c5.805-1.598,11.594-3.206,17.369-4.82
				C3265.592,1430.468,3256.667,1427.538,3247.729,1424.61z M3268.042,1418.146c-5.695,1.828-11.408,3.648-17.135,5.459
				c8.999,2.949,17.991,5.9,26.971,8.855c5.81-1.629,11.6-3.27,17.376-4.918C3286.192,1424.408,3277.123,1421.274,3268.042,1418.146
				z M3288.245,1411.596c-5.69,1.861-11.394,3.714-17.116,5.557c9.139,3.15,18.265,6.302,27.382,9.456
				c5.809-1.661,11.606-3.329,17.381-5.01C3306.686,1418.263,3297.471,1414.928,3288.245,1411.596z M3308.358,1404.952
				c-5.686,1.897-11.389,3.785-17.112,5.663c9.278,3.352,18.544,6.705,27.8,10.061c5.807-1.696,11.597-3.403,17.371-5.118
				C3327.075,1412.02,3317.722,1408.484,3308.358,1404.952z M3328.359,1398.216c-5.678,1.933-11.377,3.853-17.092,5.764
				c9.415,3.553,18.818,7.111,28.211,10.67c5.8-1.73,11.58-3.47,17.344-5.221
				C3347.345,1405.689,3337.856,1401.951,3328.359,1398.216z M3348.25,1391.378c-5.669,1.97-11.361,3.925-17.065,5.873
				c9.547,3.754,19.082,7.513,28.607,11.275c5.791-1.765,11.567-3.539,17.323-5.324
				C3367.503,1399.257,3357.882,1395.316,3348.25,1391.378z M3368.024,1384.431c-5.655,2.007-11.326,4.003-17.019,5.986
				c9.678,3.959,19.346,7.919,29.004,11.884c5.778-1.8,11.534-3.614,17.274-5.437
				C3387.541,1392.718,3377.789,1388.572,3368.024,1384.431z M3387.685,1377.374c-5.636,2.046-11.289,4.081-16.965,6.102
				c9.807,4.16,19.601,8.324,29.386,12.491c5.763-1.837,11.508-3.685,17.231-5.546
				C3407.465,1386.069,3397.581,1381.719,3387.685,1377.374z M3407.236,1370.202c-5.619,2.086-11.26,4.158-16.92,6.217
				c9.936,4.365,19.857,8.732,29.771,13.102c5.746-1.876,11.475-3.762,17.182-5.662
				C3427.266,1379.304,3417.259,1374.751,3407.236,1370.202z M3426.659,1362.915c-5.598,2.125-11.22,4.235-16.858,6.333
				c10.065,4.569,20.117,9.141,30.159,13.716c5.725-1.914,11.424-3.845,17.106-5.786
				C3446.941,1372.42,3436.806,1367.666,3426.659,1362.915z M3445.955,1355.5c-5.574,2.167-11.174,4.318-16.791,6.458
				c10.187,4.771,20.367,9.544,30.532,14.322c5.705-1.954,11.392-3.922,17.055-5.906
				C3466.498,1365.412,3456.23,1360.456,3445.955,1355.5z M3465.124,1347.953c-5.552,2.211-11.121,4.411-16.716,6.592
				c10.308,4.974,20.613,9.948,30.899,14.928c5.682-1.996,11.345-4.007,16.985-6.034
				C3485.915,1358.273,3475.522,1353.112,3465.124,1347.953z M5000,76.021c-7.501-25.005-15.197-50.283-23.225-76.021h1.858
				C4986,23.626,4993.078,46.853,5000,69.863V76.021z M5000,208.403C4982.295,141.814,4962.558,72.436,4940.606,0h1.848
				c21.185,69.936,40.316,137.038,57.545,201.528V208.403z M5000,372.817C4975.303,258.521,4943.428,134.511,4903.908,0h1.842
				c38.529,131.19,69.823,252.453,94.25,364.423V372.817z M5000,629.426C4979.359,451.504,4935.778,243.171,4866.683,0h1.836
				c67.22,236.68,110.213,440.304,131.481,615.13V629.426z M381.638,2915.999c641.209-901.546,1527.161-1143.806,2288.833-1337.122
				c-784.019,175.294-1691.825,406.61-2335.575,1337.122h-2.085c656.129-949.307,1586.697-1172.025,2381.173-1348.838
				c-817.239,157.733-1769.969,368.741-2427.553,1348.838h-2.111c669.877-999.41,1646.216-1200.335,2473.834-1359.342l0.024-0.006
				C1907.4,1695.52,908.607,1883.96,238.405,2915.999h-2.151C912.626,1873.38,1923.895,1690.464,2780.158,1551.078l5.335-1.355
				C1904.622,1668.288,867.9,1836.756,190.852,2915.999h-2.126C870.395,1828.266,1916.908,1664.32,2802.084,1545.507l8.512-2.165
				c-910.729,97.225-1984.602,245.165-2666.666,1372.658h-2.1c685.728-1134.714,1767.738-1278.743,2682.062-1376.046l10.675-2.725
				c-940.53,74.91-2051.173,201.714-2736.713,1378.771H95.64c688.566-1183.611,1806.387-1306.756,2750.09-1381.626l12.166-3.117
				c-970.347,51.659-2117.562,156.682-2805.165,1384.743h-2.192c690.169-1234.052,1843.786-1335.685,2816.98-1387.213l13.232-3.408
				C1880.509,1552.888,696.762,1635.317,8.469,2915.999H6.332C696.847,1629.765,1886.415,1550.489,2889.25,1523.185l14-3.623
				C1890.24,1522.01,693.458,1579.04,0,2850.062v-3.877c695.793-1272.361,1896.485-1326.422,2910.891-1328.608l14.643-3.814
				C1903.922,1491.238,699.846,1522.669,0,2769.037v-3.818c702.013-1247.371,1909.587-1276.073,2932.462-1253.265
				c5.069-1.326,10.128-2.653,15.18-3.982C1917.508,1460.675,706.2,1466.67,0,2688.474v-3.764
				c708.231-1222.542,1922.7-1226.005,2953.993-1178.409c5.213-1.374,10.419-2.747,15.613-4.126
				C1931.025,1430.309,712.533,1411.018,0,2608.359v-3.717c714.446-1197.862,1935.822-1176.206,2975.474-1104.025
				c5.332-1.417,10.653-2.833,15.965-4.253C1944.43,1400.118,718.827,1355.937,0,2529.103v-3.607
				C720.643,1351.957,1948.894,1398.327,2996.909,1494.9c5.411-1.45,10.81-2.903,16.201-4.358
				C1957.673,1370.104,725.07,1301.49,0,2450.812v-3.549c726.809-1149.557,1961.884-1078.886,3018.265-958.113
				c5.47-1.479,10.926-2.963,16.373-4.449C1970.84,1340.259,731.288,1247.344,0,2372.933v-3.508
				c732.952-1125.702,1974.806-1030.834,3039.496-886.049c5.539-1.514,11.072-3.031,16.588-4.552
				C1983.98,1310.558,737.491,1193.473,0,2295.462v-3.466c739.087-1101.991,1987.717-983.049,3060.664-814.44
				c5.601-1.548,11.189-3.099,16.767-4.655C1997.08,1281,743.674,1139.874,0,2218.391v-3.426
				c745.213-1078.428,2000.628-935.526,3081.779-743.276c5.65-1.581,11.284-3.166,16.908-4.754
				C2010.149,1251.578,749.843,1086.533,0,2141.706v-3.39c751.329-1055.006,2013.525-888.259,3102.826-672.552
				c5.686-1.61,11.358-3.227,17.018-4.846C2023.084,1222.269,755.968,1033.882,0,2066.132v-3.281
				c757.408-1032.055,2026.306-842.076,3123.807-603.07c5.706-1.637,11.403-3.278,17.084-4.927
				C2035.946,1193.082,762.07,981.553,0,1991.057v-3.242c763.47-1009.262,2039.05-796.207,3144.709-534.073
				c5.709-1.661,11.404-3.329,17.086-5.002C2048.726,1164.014,768.137,929.465,0,1916.334v-3.209
				c769.5-986.578,2051.708-750.554,3165.466-465.467c5.75-1.699,11.482-3.404,17.202-5.116
				c-214.923-58.95-435.95-116.074-658.282-163.111C1586.831,1081.08,625.808,1062.296,0,1841.794v-3.097
				c626.252-778.419,1587.206-759.534,2524.708-561.196c223.472,47.277,445.58,104.732,661.49,163.985
				c5.75-1.724,11.482-3.457,17.201-5.195c-256.068-74.865-520.611-147.178-785.7-203.261
				C1513.78,1041.797,603.315,1039.382,0,1767.743v-3.024c603.733-727.355,1514.144-724.843,2418.021-533.617
				c266.185,56.314,531.775,128.974,788.779,204.152c5.757-1.754,11.501-3.515,17.228-5.285
				c-293.452-90.987-597.788-178.671-901.346-242.892C1449.882,1002.426,583.363,1011.793,0,1694.228v-3.052
				c583.759-681.461,1450.25-690.668,2323.005-506.027c304.616,64.444,609.965,152.495,904.311,243.8
				c5.761-1.786,11.507-3.578,17.236-5.38c-328.077-107.404-669.456-210.737-1008.206-282.402
				C1392.663,962.678,565.266,980.83,0,1621.502v-2.975c565.641-639.764,1393.021-657.772,2236.668-479.288
				c339.766,71.88,682.135,175.596,1011.068,283.327c5.76-1.818,11.5-3.643,17.228-5.478
				c-360.57-124.155-736.854-243.452-1108.159-322.005C1340.68,922.424,548.59,946.826,0,1548.974v-2.904
				c548.946-601.3,1341.028-625.57,2157.127-452.917c372.297,78.762,749.546,198.457,1110.937,322.943
				c5.753-1.848,11.486-3.708,17.205-5.575c-391.358-141.252-800.818-276.851-1202.496-361.829
				C1292.891,881.586,533.042,910.274,0,1476.63v-2.835c533.38-565.564,1293.229-594.136,2083.095-427.031
				c402.637,85.181,813.031,221.191,1205.177,362.777c5.751-1.882,11.487-3.776,17.202-5.677
				c-420.736-158.696-861.943-310.929-1292.152-401.945C1248.459,840.105,518.419,871.998,0,1405.105v-2.85
				c518.742-532.341,1248.799-564.074,2013.644-402.264c431.103,91.205,873.23,243.863,1294.739,402.904
				c5.744-1.917,11.472-3.842,17.18-5.78c-448.948-176.486-920.695-345.69-1377.8-442.394
				C1206.902,797.983,504.563,831.937,0,1333.899v-2.785C504.872,829.87,1207.233,796.056,1948.085,952.791
				c457.98,96.891,930.617,266.527,1380.304,443.36c5.73-1.951,11.439-3.914,17.135-5.888
				c-476.149-194.609-977.378-381.102-1459.957-483.196C1167.825,755.221,491.354,790.188,0,1262.833v-2.721
				c491.647-471.973,1168.146-506.821,1885.89-354.973c483.435,102.275,985.537,289.21,1462.402,484.169
				c5.715-1.987,11.406-3.988,17.083-6c-502.479-213.054-1032.279-417.144-1539.066-524.359
				C1130.819,711.81,478.704,747.277,0,1192.378v-2.734c478.986-444.454,1131.143-479.762,1826.632-332.625
				c507.62,107.392,1038.27,311.93,1541.439,525.333c5.699-2.024,11.377-4.06,17.036-6.109
				c-528.045-231.807-1085.604-453.789-1615.452-565.884C1095.647,667.768,466.542,703.215,0,1122.342v-2.674
				c466.812-418.522,1095.962-453.83,1769.976-311.236c530.662,112.267,1089.054,334.701,1617.762,566.858
				c5.681-2.063,11.346-4.136,16.988-6.224C2851.79,1118.209,2267.193,878.057,1715.32,761.301
				C1062.134,623.114,454.795,657.911,0,1052.425v-2.618c455.056-393.949,1062.439-428.625,1715.642-290.434
				c552.669,116.923,1138.076,357.534,1691.651,608.738c5.659-2.1,11.3-4.216,16.919-6.343
				c-577.218-270.186-1188.193-528.776-1761.138-649.988C1030.032,577.853,443.429,611.775,0,983.035v-2.626
				c443.677-370.716,1030.34-404.486,1663.396-270.558c573.726,121.378,1185.491,380.43,1763.327,650.963
				c5.636-2.142,11.249-4.3,16.841-6.469c-600.952-289.781-1237.697-567.059-1830.842-692.544
				C999.212,532.007,432.399,564.816,0,914.056v-2.572c432.639-348.733,999.512-381.412,1613.045-251.613
				c593.905,125.647,1231.426,403.39,1832.98,693.521c5.613-2.184,11.198-4.385,16.767-6.598
				c-624.189-309.633-1286.156-605.833-1898.696-735.421C969.585,485.599,421.658,516.888,0,845.187v-2.522
				C421.89,514.84,969.878,483.663,1564.419,609.445c613.265,129.742,1275.992,426.414,1900.77,736.397
				c8.021-3.197,16-6.423,23.928-9.685C3986.054,1131.731,4301.746,798.413,4233.058,0h1.795
				c68.801,799.466-247.399,1133.25-745.133,1338.003c-7.36,3.027-14.76,6.024-22.199,8.997
				c10.435,5.178,20.863,10.358,31.275,15.543c31.171-11.242,61.674-22.951,91.463-35.206
				C4067.268,1131.111,4361.195,794.808,4280.111,0h1.794c81.196,795.852-213.235,1132.627-691.042,1329.184
				c-29.217,12.019-59.125,23.511-89.669,34.554c10.392,5.177,20.778,10.355,31.147,15.535
				c52.645-17.044,103.442-35.401,152.158-55.441C4144.867,1134.45,4420.001,794.884,4326.431,0h1.788
				c93.68,795.917-181.948,1135.967-643.117,1325.678c-48.139,19.803-98.305,37.963-150.275,54.837
				c10.354,5.174,20.692,10.352,31.025,15.53c72.846-20.982,142.227-44.451,207.582-71.337
				C4219.709,1141.124,4478.379,798.061,4372.131,0h1.79c106.358,799.089-152.806,1142.64-599.884,1326.555
				c-64.775,26.646-133.499,49.935-205.619,70.775c10.307,5.167,20.596,10.336,30.88,15.505
				c92.05-23.319,178.699-50.558,258.857-83.532C4292.284,1150.714,4536.011,803.603,4416.982,0h1.787
				c119.138,804.621-125.076,1152.228-560.012,1331.148c-79.572,32.734-165.53,59.816-256.8,83.023
				c10.256,5.158,20.494,10.315,30.726,15.471c110.448-24.26,213.315-54.086,306.761-92.527
				C4363.053,1162.854,4593.247,811.386,4461.2,0h1.788c132.158,812.394-98.521,1164.366-522.941,1338.962
				c-92.853,38.197-194.984,67.893-304.599,92.075c10.204,5.144,20.395,10.287,30.573,15.432
				c128.189-23.965,246.397-55.332,351.859-98.716C4432.293,1177.274,4650.048,821.091,4504.75,0h1.789
				c145.411,822.091-72.827,1178.783-488.056,1349.598c-104.863,43.139-222.297,74.402-349.588,98.324
				c10.148,5.129,20.283,10.256,30.406,15.383c145.376-22.561,278.212-54.52,394.605-102.403
				C4500.222,1193.754,4706.382,832.47,4547.603,0h1.795c158.893,833.464-47.752,1195.263-454.889,1362.748
				c-115.787,47.632-247.801,79.518-392.216,102.073c10.09,5.111,20.166,10.219,30.229,15.327
				c162.1-20.154,308.959-51.845,435.353-103.84C4566.993,1212.12,4762.148,845.261,4589.702,0h1.798
				c172.565,846.248-23.074,1213.625-423.022,1378.153c-125.777,51.74-271.757,83.397-432.827,103.583
				c10.021,5.088,20.033,10.173,30.028,15.255c178.429-16.83,338.803-47.464,474.381-103.237
				C4632.772,1232.203,4817.509,859.425,4631.147,0h1.801c186.483,860.404,1.264,1233.705-392.285,1395.6
				c-134.951,55.515-294.403,86.142-471.729,103.046c9.954,5.063,19.902,10.123,29.828,15.179
				c194.421-12.664,367.881-41.505,511.934-100.764C4697.673,1253.869,4872.464,874.842,4671.943,0h1.806
				c200.645,875.812,25.372,1255.368-362.451,1414.907c-143.411,58.995-315.871,87.88-509.108,100.666l29.571,15.071
				c210.127-7.719,396.31-34.088,548.204-96.573C4761.79,1276.999,4927.026,891.394,4712.104,0h1.811
				c215.049,892.358,49.331,1278.494-333.347,1435.917c-151.239,62.215-336.363,88.669-545.216,96.559l29.343,14.975
				c225.579-2.05,424.156-25.322,583.331-90.801C4825.199,1301.491,4981.199,908.996,4751.639,0h1.815
				c229.693,909.951,73.21,1302.981-304.824,1458.496c-158.504,65.204-355.954,88.606-580.159,90.883l29.083,14.86
				c240.809,4.29,451.507-15.293,617.46-83.562C4887.971,1327.253,5035.002,927.571,4790.568,0h1.823
				c244.572,928.518,97.054,1328.739-276.775,1482.523c-165.265,67.985-374.753,87.752-614.087,83.746l28.804,14.729
				c255.848,11.265,478.424-4.077,650.706-74.948C4950.161,1354.203,5088.447,947.053,4828.91,0h1.831
				c259.68,947.99,120.906,1355.684-249.1,1507.896c-171.57,70.579-392.854,86.158-647.121,75.244l28.496,14.578
				c270.724,18.833,504.979,8.262,683.18-65.044c187.765-77.24,313.312-224.237,353.804-479.985v10.97
				c-42.345,249.99-167.408,394.432-353.201,470.861c-177.466,73.004-410.324,83.883-679.339,65.473l28.162,14.413
				c285.449,26.96,531.199,21.652,714.952-53.938c130.296-53.6,229.381-142.647,289.426-280.581v4.589
				c-60.391,136.288-159.218,224.52-288.824,277.837c-182.987,75.276-427.229,80.968-710.84,54.506l15.928,8.154l11.879,6.08
				c300.048,35.618,557.132,36.039,746.1-41.697c92.604-38.095,168.811-95.041,225.757-175.783v3.221
				c-56.984,79.965-132.972,136.486-225.154,174.408c-188.168,77.406-443.618,77.456-741.682,42.421l27.42,14.036
				c314.536,44.78,582.808,51.368,776.685-28.387c62.225-25.598,116.759-60.14,162.731-105.146v2.629
				c-45.887,44.594-100.208,78.891-162.128,104.363c-193.038,79.411-459.55,73.376-771.942,29.276l26.973,13.801
				c328.939,54.424,608.3,67.617,806.804-14.041c36.198-14.892,69.66-33.003,100.293-54.538v2.341
				c-30.483,21.306-63.741,39.254-99.69,54.042c-197.627,81.299-475.095,68.75-801.704,15.114l26.498,13.549
				c343.257,64.525,633.623,84.743,836.505,1.284c13.185-5.423,25.953-11.344,38.392-17.661v2.163
				c-12.251,6.196-24.818,12.009-37.789,17.344c-201.953,83.076-490.238,63.63-830.958,0.015l25.985,13.275
				c344.477,72.326,636.718,100.582,842.762,26.358v2.063c-204.956,73.602-494.691,46.215-836.097-25.016l25.374,12.948
				c325.112,75.237,604.616,111.734,810.723,61.625v2.001c-204.782,49.652-481.662,14.078-803.58-59.984l24.735,12.606
				c307.114,77.51,574.332,120.905,778.845,90.848v1.968c-202.919,29.756-467.296-12.608-771.015-88.83
				c8.005,4.075,16.016,8.156,23.992,12.211c290.193,79.182,545.43,128.271,747.022,114.963v1.963
				c-199.727,13.153-451.916-34.822-738.484-112.589c7.708,3.918,15.418,7.836,23.097,11.733
				c274.18,80.299,517.759,134.09,715.387,134.8v1.96c-195.448-0.708-435.693-53.249-705.952-131.977l22.155,11.225
				c258.894,80.885,491.02,138.435,683.797,150.843v1.953c-190.25-12.23-418.701-68.367-673.33-147.495
				c7.01,3.547,13.984,7.064,20.97,10.592c244.261,80.981,465.143,141.461,652.36,163.576v1.97
				c-184.275-21.746-401.085-80.631-640.644-159.629c6.559,3.309,13.087,6.594,19.624,9.885
				c230.173,80.613,439.974,143.255,621.02,173.346v1.981c-177.595-29.492-382.802-90.293-607.717-168.631
				c5.965,3,11.917,5.987,17.863,8.971c216.59,79.815,415.472,143.921,589.854,180.478v1.99
				c-170.281-35.667-363.88-97.599-574.477-174.758l15.635,7.83c203.438,78.608,391.554,143.552,558.842,185.231v1.977
				c-162.341-40.415-344.243-102.714-540.717-178.159c4.239,2.115,8.5,4.246,12.728,6.353
				c190.687,77.02,368.147,142.177,527.989,187.787v2.028c-153.654-43.813-323.57-105.695-505.841-178.805l8.751,4.348
				c178.203,75.026,345.065,139.828,497.09,188.279v2.015c-144.172-45.921-301.657-106.536-469.497-176.637l2.92,1.444
				c166.119,72.725,322.563,136.688,466.576,187.039v2.048c-129.492-45.249-269.017-101.496-416.586-165.233
				c147.094,66.504,286.583,126.013,416.586,175.21v2.065c-112.318-42.484-231.712-92.668-356.965-148.412
				c124.917,58.102,244.293,111.01,356.965,156.681v2.061c-93.983-38.079-192.621-81.19-295.243-128.152
				c102.408,48.91,201.024,94.194,295.243,134.766v2.089c-127.886-55.046-263.871-118.788-406.402-188.457
				c-19.815-9.318-39.756-18.75-59.823-28.294c-19.759-9.036-39.646-18.185-59.661-27.446c-19.76-8.766-39.642-17.639-59.658-26.626
				c-19.362-8.327-38.845-16.758-58.445-25.286c-19.592-8.149-39.297-16.395-59.13-24.74c-19.062-7.654-38.239-15.401-57.528-23.236
				c-19.449-7.521-39.028-15.144-58.71-22.844c-18.86-7.008-37.828-14.095-56.904-21.265c-19.111-6.803-38.345-13.699-57.676-20.661
				c-18.854-6.411-37.806-12.894-56.87-19.453c-18.672-6.045-37.458-12.169-56.334-18.352c-18.683-5.736-37.457-11.533-56.341-17.4
				c-18.35-5.318-36.801-10.702-55.345-16.142c-18.431-5.018-36.955-10.094-55.578-15.226c-18.028-4.584-36.148-9.222-54.359-13.909
				c-18.175-4.283-36.452-8.625-54.811-13.008c-17.861-3.871-35.808-7.791-53.844-11.753c-17.708-3.494-35.51-7.034-53.389-10.611
				c-17.585-3.12-35.249-6.278-52.999-9.471c-17.43-2.736-34.946-5.508-52.537-8.311c-17.355-2.36-34.792-4.755-52.306-7.174
				c-17-1.947-34.076-3.922-51.226-5.919c-17.057-1.577-34.196-3.182-51.403-4.805c-16.763-1.171-33.598-2.361-50.503-3.569
				c-16.662-0.776-33.396-1.572-50.199-2.38c-16.428-0.374-32.924-0.763-49.487-1.162c-16.287,0.028-32.642,0.043-49.063,0.051
				c-16.105,0.431-32.277,0.853-48.509,1.271c-15.924,0.837-31.905,1.668-47.952,2.497c-15.786,1.246-31.638,2.49-47.545,3.735
				c-15.548,1.65-31.152,3.3-46.818,4.954c-15.395,2.064-30.849,4.129-46.356,6.2l-40.259,6.54l-5.58,0.907l-29.634,5.688
				l-15.699,3.015l-19.471,4.327l-25.216,5.606l-9.901,2.507c-773.137,195.798-1685.978,427.278-2342.518,1349.317H381.638z"/>
		</defs>
		<clipPath id="SVGID_00000106863226138310221890000001442064953604536473_">
			<use xlink:href="#SVGID_1_"  style="overflow:visible;"/>
		</clipPath>
		
			<linearGradient id="SVGID_00000152950263374587440310000008236148521202765489_" gradientUnits="userSpaceOnUse" x1="116.2299" y1="1525.8212" x2="4883.3311" y2="1392.7151">
			<stop  offset="0" style="stop-color:#003399"/>
			<stop  offset="1" style="stop-color:#40C9EB"/>
		</linearGradient>
		
			<rect style="clip-path:url(#SVGID_00000106863226138310221890000001442064953604536473_);fill:url(#SVGID_00000152950263374587440310000008236148521202765489_);" width="5090.42" height="2915.999"/>
	</g>
</g>
</svg>
